<mxfile host="app.diagrams.net" modified="2022-01-25T07:32:32.884Z" agent="5.0 (Windows NT 10.0; Win64; x64) AppleWebKit/537.36 (KHTML, like Gecko) Chrome/97.0.4692.99 Safari/537.36 Edg/97.0.1072.69" etag="rXxASMCAz9VMzkbShFTO" version="16.2.7" type="github">
  <diagram id="6a731a19-8d31-9384-78a2-239565b7b9f0" name="Page-1">
    <mxGraphModel dx="1227" dy="626" grid="0" gridSize="10" guides="1" tooltips="1" connect="1" arrows="1" fold="1" page="1" pageScale="1" pageWidth="1169" pageHeight="827" background="none" math="0" shadow="0">
      <root>
        <mxCell id="0" />
        <mxCell id="1" parent="0" />
        <mxCell id="2" value="start" style="shape=mxgraph.flowchart.terminator;strokeWidth=2;gradientColor=none;gradientDirection=north;fontStyle=0;html=1;" parent="1" vertex="1">
          <mxGeometry x="257.5" y="60" width="120" height="30" as="geometry" />
        </mxCell>
        <mxCell id="3" value="initialize the value of &lt;br&gt;x0、d0、delta0" style="shape=mxgraph.flowchart.data;strokeWidth=2;gradientColor=none;gradientDirection=north;fontStyle=0;html=1;" parent="1" vertex="1">
          <mxGeometry x="238" y="110" width="159" height="80" as="geometry" />
        </mxCell>
        <mxCell id="0ZkBP9dp2YlqK50nAH8K-64" style="edgeStyle=orthogonalEdgeStyle;rounded=0;orthogonalLoop=1;jettySize=auto;html=1;exitX=0.5;exitY=1;exitDx=0;exitDy=0;exitPerimeter=0;entryX=0.5;entryY=0;entryDx=0;entryDy=0;entryPerimeter=0;" edge="1" parent="1" source="4" target="0ZkBP9dp2YlqK50nAH8K-62">
          <mxGeometry relative="1" as="geometry" />
        </mxCell>
        <mxCell id="4" value="generate the &lt;br&gt;direction vector &lt;b&gt;b&lt;/b&gt;" style="shape=mxgraph.flowchart.data;strokeWidth=2;gradientColor=none;gradientDirection=north;fontStyle=0;html=1;" parent="1" vertex="1">
          <mxGeometry x="238" y="298" width="159" height="80" as="geometry" />
        </mxCell>
        <mxCell id="0ZkBP9dp2YlqK50nAH8K-59" style="edgeStyle=orthogonalEdgeStyle;rounded=0;orthogonalLoop=1;jettySize=auto;html=1;exitX=1;exitY=0.5;exitDx=0;exitDy=0;exitPerimeter=0;entryX=0.5;entryY=0;entryDx=0;entryDy=0;entryPerimeter=0;" edge="1" parent="1" source="6" target="0ZkBP9dp2YlqK50nAH8K-75">
          <mxGeometry relative="1" as="geometry">
            <mxPoint x="489" y="710" as="targetPoint" />
          </mxGeometry>
        </mxCell>
        <mxCell id="6" value="t &amp;lt; Tmax" style="shape=mxgraph.flowchart.decision;strokeWidth=2;gradientColor=none;gradientDirection=north;fontStyle=0;html=1;" parent="1" vertex="1">
          <mxGeometry x="268.5" y="211" width="98" height="57" as="geometry" />
        </mxCell>
        <mxCell id="7" style="fontStyle=1;strokeColor=#003366;strokeWidth=1;html=1;" parent="1" source="2" target="3" edge="1">
          <mxGeometry relative="1" as="geometry" />
        </mxCell>
        <mxCell id="9" style="entryX=0.5;entryY=0;entryPerimeter=0;fontStyle=1;strokeColor=#003366;strokeWidth=1;html=1;exitX=0.5;exitY=1;exitDx=0;exitDy=0;exitPerimeter=0;" parent="1" source="3" target="6" edge="1">
          <mxGeometry relative="1" as="geometry">
            <mxPoint x="320" y="330.0000000000001" as="sourcePoint" />
          </mxGeometry>
        </mxCell>
        <mxCell id="11" value="no&lt;br&gt;" style="text;fontStyle=0;html=1;strokeColor=none;gradientColor=none;fillColor=none;strokeWidth=2;" parent="1" vertex="1">
          <mxGeometry x="383" y="207" width="40" height="26" as="geometry" />
        </mxCell>
        <mxCell id="12" value="" style="edgeStyle=elbowEdgeStyle;elbow=horizontal;fontColor=#001933;fontStyle=1;strokeColor=#003366;strokeWidth=1;html=1;" parent="1" source="6" target="4" edge="1">
          <mxGeometry y="-73" width="100" height="100" as="geometry">
            <mxPoint y="27" as="sourcePoint" />
            <mxPoint x="100" y="-73" as="targetPoint" />
          </mxGeometry>
        </mxCell>
        <mxCell id="14" value="yes&lt;br&gt;" style="text;fontStyle=0;html=1;strokeColor=none;gradientColor=none;fillColor=none;strokeWidth=2;align=center;" parent="1" vertex="1">
          <mxGeometry x="323" y="265" width="40" height="26" as="geometry" />
        </mxCell>
        <mxCell id="0ZkBP9dp2YlqK50nAH8K-56" value="" style="strokeWidth=2;html=1;shape=mxgraph.flowchart.terminator;whiteSpace=wrap;" vertex="1" parent="1">
          <mxGeometry x="587" y="1388" width="226" height="60" as="geometry" />
        </mxCell>
        <mxCell id="0ZkBP9dp2YlqK50nAH8K-69" style="edgeStyle=orthogonalEdgeStyle;rounded=0;orthogonalLoop=1;jettySize=auto;html=1;exitX=0.5;exitY=1;exitDx=0;exitDy=0;exitPerimeter=0;entryX=0.5;entryY=0;entryDx=0;entryDy=0;entryPerimeter=0;" edge="1" parent="1" source="0ZkBP9dp2YlqK50nAH8K-62" target="0ZkBP9dp2YlqK50nAH8K-63">
          <mxGeometry relative="1" as="geometry" />
        </mxCell>
        <mxCell id="0ZkBP9dp2YlqK50nAH8K-62" value="according to the &lt;b&gt;x&lt;/b&gt;&amp;nbsp;&lt;br&gt;and &lt;b&gt;d&lt;/b&gt; get &lt;br&gt;&lt;b&gt;xr&lt;/b&gt; and&amp;nbsp;&lt;b&gt;xl&lt;/b&gt;" style="shape=mxgraph.flowchart.data;strokeWidth=2;gradientColor=none;gradientDirection=north;fontStyle=0;html=1;" vertex="1" parent="1">
          <mxGeometry x="238" y="397" width="159" height="80" as="geometry" />
        </mxCell>
        <mxCell id="0ZkBP9dp2YlqK50nAH8K-72" style="edgeStyle=orthogonalEdgeStyle;rounded=0;orthogonalLoop=1;jettySize=auto;html=1;exitX=0.5;exitY=1;exitDx=0;exitDy=0;exitPerimeter=0;" edge="1" parent="1" source="0ZkBP9dp2YlqK50nAH8K-63" target="0ZkBP9dp2YlqK50nAH8K-71">
          <mxGeometry relative="1" as="geometry" />
        </mxCell>
        <mxCell id="0ZkBP9dp2YlqK50nAH8K-63" value="update the state&lt;br&gt;variable &lt;b&gt;x&lt;/b&gt;" style="shape=mxgraph.flowchart.data;strokeWidth=2;gradientColor=none;gradientDirection=north;fontStyle=0;html=1;" vertex="1" parent="1">
          <mxGeometry x="238" y="500" width="159" height="80" as="geometry" />
        </mxCell>
        <mxCell id="0ZkBP9dp2YlqK50nAH8K-65" value="" style="shape=image;verticalLabelPosition=bottom;labelBackgroundColor=default;verticalAlign=top;aspect=fixed;imageAspect=0;image=data:image/png,iVBORw0KGgoAAAANSUhEUgAAAVkAAABpCAYAAACQ/1DCAAAdOElEQVR4nO3de1xUdf7H8dcMI6CAgoBCgHIzkAJRAbXIS9ZqmqZlau1Wbhdd03VL01LMrLyU/TYvqZX+yutaur9Mt+ximZppyh1UQLwwICgBiiC3GWbm/P4YSjDbUBmGoc/z8fDx0IOc8z2XeZ/vfL/f8z0qRVEUhBBCWITa2gUQQojWTEJWCCEsSEJWCCEsSEJWCCEsSEJWCCEsSEJWCCEsSEJWCCEsSEJWCCEsSEJWCCEsSEJWCCEsSEJWCCEsSEJWCCEsSEJWCCEsSEJWCFthusA3i2exKcNg7ZKI6yAhK4StUDvT9vKPfPz5cSRmbYeErBA2w4HokYPRf7WdhCprl0U0loSsEDbEIfopJvh9w/L1meisXRjRKBKyQtgSOz/GvTqNDh/NYNG3RZisXR7xuyRkhbAxGv+xLFk2Au38sUxccYBCaaBt0VTyji8hmouBrA3P8OySA5ytuoE6qKot3mERdHFRmddWlEnymXKcAvrz1MJlTO3XoYnLK5qCxtoFEOKPQ0OXwc8w6VIQWRdrub7qjQpVG1eCIsO5pR2glJP64WLSLoQy6OEnGBkpAdtSSU1WCFtjKub7RU8Rl9CH19e8xMDOdtYukfgvpE1WWJ1R+zHTRs1gR1Er6cYxatk2dTQzP7VEx5SRs5/EMfdQDEvWz5aAtQESssLKjGh3fcxurYl2zq3jcjRqd/HxV1pM7Zyb/gN2aS8rV+Yx9JXn6efWOo5XaydnSViXqZSk+CzsevSht6O1C9MUTFxKSOCEXQ/6NPkOmTj32Qb2B0zg6WinJl63sBTp+BJWYczfwwebj1CiP8+RJD2OwfG8v/gMrlF/ZtKQrrT4L8FGHWUXiiguKebCRQWvCC9Ob9nEkZJaCg8noXcMJv7dNzjj1ptHJg+ha2N2yFDOT/lFlF6uoLKygkqTB7f1DcX9l6pQKQf3ZhMx7G08pHpkM6TjS1iHoZyiwnIqU5fz2LTD9F+9icm3t8HR1QtP55YesXrS35/Cy9uOotUWUWXXl7l71zO6TRHlFWm88+g0jgxcxYYpt6NxdMXL07kRNw0dB+MG8+SWc1facdsO5o1Da3nI9cp2zx/NoDYoki7tLLRrosnJ/VBYh6Y9nXy9MWmzKXaJYkB/f/x8fWwgYAHsiZi0lp1frmCMrxq7oCiiO9vTvpMv3koO2cUu9B7Yn65+vvg0KmABHOg373P2fjqdKHvzEk1ITyJdGm7XO1wC1tZIyArrMZWSmHACTWQTt8dWZfDlZ6mUNeEqr8V4PpWj5xQ8e0YTpAEwcSk+gWxND2JuYIfUDq64FeVwphbADp+eUfjZwj1H/FcSssJ6apKITzNwa3Q0TdlRbsjZxfK3dnBS33TrvJbyhAROGJyJ6NMDBwBqSDqSjiEkmqiON7JDejITUilTAFV7ImNux75JSyysQUJWWI0+K4n0Cj+i+vhhBxhzd7DxqyYYW2oyoShg2c6GalIOp1HdJoyYKGfzIn0WyekV+Eb1MddAjbnsXP8VjR7+a8wnIeksRgCH2+ndOoZb/OG1jpDVl5J7NJGko3lcajD/m4GyvHSSkrM4X9FKBrq3UPrSXI4lJnIs71LDKfgMZeSlJ5KSdY6rT0FtrpZz9iFEhNmD8Sw71yTiEu5hGxelPov4lIuog6KJ6lxX4tpctAX2hESGYY+Rs5+uIcklvPEjAS4lknTCPNuLplsUUR1quaBNJykpg9ySKnP4Cptj40O4ysn4aBFzVxygpmsQbmVZpJ0x0HXQJObNH0DOommsOt6REO9yMk9A/9mref1Bf1vf6ZalPIOtC+ew8kANXYLdKMtMJcfgz8BJ83l54Bne/PtKjruH4F2ewQllAC+9u5BR/uYz4BgznBH+mzi0aR3aonxcHpzJ4z4tL2JN5Rn8Z/VqduU44tnBQIW6B48/piMpT8Hz4WiCf76gHGMYNtKfzT9sZn3OTxS4PMiMCT6NvmlUJ8eTXm3+u6ZiP3Pu+Ygyj2B87Ao4mlaCW+w4pr30HCNulZ4vm6LYKmOJsu/VYUq/+2Yr/zlVUbfsvLLxkRAl2D9QiQiPUPo8vl45WVOlHPvgaWVAaIDSrcc05YsK6xb7txmVivMnlYzjx5XjN/An43i2cu6ysXlLXLJXWXBfjHL/7J3KlVOwXvnLrQFKcMBtSs/waOWv608qNVXHlA+filVu9w9Uev9911VrqVFKzhcrNU1Yrtr0N5Q/xb6ixOtufl26058oM+6OUkbO36P8ZDAvq0h+W5l4T6wS5h+hPLuj7Fe/U1N8Xim57h3SKUkL71ZC/AOUYP8AJWLobGVH9uWf16gcXzpS6e4foITcMV35qqh5z7O4OTZaqTNR8vVC5u3y44XtrzPC50oXrKIogEJVlQfjpj5CMPuZueo7CmpA5eKIY0vdY0MKqx7/M2tvuLfGnsCnN/F1XHSTFus3mYrZvXAuX/jN4t+vj+SWer3g5lNQRZXHeJ59JBj2zeC97wqoQYWL49XtjA64ezk0T5mvk6l0LwuensMejxlsi7ubTnX76NRjLH3d3+W73F5E/9weW4+DhxfXvUfGfBIS69pj28Uy638X8MAvtXoHgqLC8VAf5fy5XWz67HnufdLXNppVhK1+c64i/ssfcRv/HvfXC1h0xzh+ytympfa6g4ER9qAJ454H7yT7IERPmUL/lvl5Bk1vZu3OYpa1y9FYVfF8fagjY98f0SBgdceOcdoAoKbzHYMItwdN2L2Mis3mRyWayVMHWKvE16mcH96ax1atGw+9/Cjd6n9SDMWUXDBhFxhNdOcmirp67bFtuscS69VwvYaLFyk3ARjQnjxNLb7XH+TCKmw0ZJ0ZtuJHhl21VJ+VSFqpAqho36sfEQ4APgyJ28iQ5i9k6+Y8nKWHh1+1UM+JxFRK64Yg9epXN7TJdyizNw5tum0bstj8wmv856zu2nOy1pxFm29i3rijOKt+/WOVqg0+I19h6RPdf3MTxrztrNlRgOL1CMPvaDhPgPF8AglaBY8x9dpjb1J1ckJde6wdfr2j8W4wPlbPycxT1NT9q429xKstsdGQvRYjhYnJ5JnHvxDeNxrpHmhmxkKSkvLqhiBF0CfGQmdA05WBT0zEq1h/zWFapvwdvL5Sx6iJ4wi8xmB+FW3o2L3rf9mAicI9X5NSDW5D+hN5VaZdij9ClsGZ2D6RTVSbNHAq7Vjd+Fg3IqNCG46PNRWRklJ3XGlD1+AA2jTJdkVzaEUhe5mkhCxqATQhxPTpeFWblQmTSY26xTZklXNy77ek/KS/zhnzzVQqezx73sOgkPZNX7TGupxIYlYtAJrQGKKvHpBvMmFSq5ugLbEtvj0H4vsbPzUcTeFtp2p6Df4T0Tc0mr+W7MzT6LEntHdP2jb4WVXd+NjuV8bH3jQdp7NzMQDYh9HzqlQ3Fe/n+/S6tvq2PRnQ30aGuQnAZkNWz6n/m8tL7ySivut5/vnqCPwMKSSkm19Gr/bqQU/f+lUYHYkL72fKT8+zd8WwuhquiaJDm9n87Wlqg0YycXwQuTv+xb4zldTaeRE7/s/0u6UZn2k05HNw20a25167dvZ7VNjjWxHCoJDbmrxo16Q/xSdxM1mdaEfs9KXMG+GHISWeo1UAarwietHwFCSwePizFE3fz9JhLf07honKy1Wg9qbbra4NA01/nCPJpdgFRhPlpQZ9Kh9+eJFxf7ubG5988MoZt/MKIqhD/S2aKP1+H6nVAGq8hv2VBxs1pZdoKWwzZKv38d7iT0i7qKD+9hBnXh5Bp6R9/FhsHu2uCQwluF5lwHBmK6t2mBjy1p2/NCGYSj7j3d0eTJ0C/+g3iQl77ua+ibP4+/05LB/9JHMrurNnXjP11ANowpjw7g4mNN8Wb0r1vtUs+SSNi4qaPQdPM2dEJ5L3HsJ8CjQEhHar91XaQM7Wlew0DeHNO1t6wALYcYtPZ9QqJ1xdGwZaZfIX7M9TcB8TRTcNGNL2kmm47yabDezxD/LF7ptTqBza4lg/Y3XprF93gApA4zuKuBcH8/tv8zJRkryNDTvzCBw3hdFhMvesNdnmt466ZyZVTgEMe+5J+tam8cHyXVS5uqACVAYdehOAkQtpm3nh6VVUjF/ECwN/vjxNFH19CLtBg+hwvpASow73e/7BxL4e2NEO7z5jmTgqzHr7ZwPMp0CFU+Bwpj3Vj9q0tbyzqwpXFxWgwqDXmR+PNV4gffN0Jq68zLhFsxhgE+/7syfi4YeIsD/H6VOVvyzVndzKonXHMKnt8PTxRoOO1C9zCbgn+CZrK/aEj3mUGBcVhryD7M+ue2au6hSfxr3Aukw9Dl2HMf+DhQz1bMRH1pDNlnnzeG/je8S99CHZ8spwq7LR+WSNFOx6nWmvfU7ZLYE4FReg6j+LpdO78MOi11jzTRaVbt0IcimloMyHoTMXMPOB4AZta7riYqo7umP4+Anuek3Dq4fWMdbdajtke4wFfPnaVBZ8XoZ3oBMlBSpiX1zG810OsPi1NezJrMCtWxAupQWU+d7H9AUvMjK47e+vtwkYjr7J8GerWbBn/g22yQJUc2LrHF5YX829fxlIu9wUMqvDeWLmUC4tm0Dc8X5MuruCxMvDmT89Ftebrq6YuJC4iX8ueZ/Ps+wICu1MTc4xCuxC6T/6CaZMHk33Rje3l3Nk2bPM3pKPg2svJm1/m1FN1XwsrpuNhmwdXSl5OYUY3P3x92x7pVpuqqYkR0sx7nTx74TTbzZhVbP7H32Zmvs3vvlkcuNmrxcN6Erz0J430DHAH8+2V5LGVF2MNqcEPLrQtZNTs77poGlCtm5d5flkZpxD7RdGqM/Pc8PqKM5KQ0sgPUI9mnimLCNVxfmcLaxE4+6Dr1cHHG44wHUcXLCY4ufmS8hakW22yf7MwY0uoW6/Xq5ui0dQdzx+7/f1x4hPqaDr0L5XjUsUjeXg1oWQa54CTwLDPJu/QICqXXvc3NrQFO9l1LT3Jbzv1eMYHPAMjcEye2dHO8+uhDTFyk0l5Og7cJvMl2hVth2yN8l49giJ+a5ERofJvJ2tiF3QZLbsoAUP12sexpzdnPb6E+Pl4raqP/RlqMvIIMc5hrui5Qma1uaPHrAY89ix7ixRY7r/sWtSLYBtt8neLP0lCssc8PJsng4ZIZpL5eGNbDUOZ8Kd7n/smlQL8McOWSGEsDC5yQkhhAVJyAohhAVJyAohhAVJyAphK0wX+GbxLDZlyHOytkRCVghboXam7eUf+fjz40jM2g4JWSFshgPRIwej/2o7CVXWLotoLAlZIWyIQ/RTTPD7huXrM9FZuzCiUSRkhbAldn6Me3UaHT6awaJvi8zTSYoWTUJWCBuj8R/LkmUj0M4fy8QVByiUBtoWTZ74EqLZGMja8AzPLjnA2aobqIOq2uIdFkEXF/MreA1FmSSfKccpoD9PLVzG1H42MSP6H47MHSFEs9HQZfAzTLoURNbF2ut8YaYKVRtXgiLDuaUdoJST+uFi0i6EMujhJxgZKQHbUklNVghbYyrm+0VPEZfQh9fXvMTAzjIZcksmbbLC6ozaj5k2agY7ilpJN45Ry7apo5n5qSU6poyc/SSOuYdiWLJ+tgSsDZCQFVZmRLvrY3ZrTbRrilcZtABG7S4+/kqLqZ1z03/ALu1l5co8hr7yPP3cWsfxau3kLAnrMpWSFJ+FXY8+9Ha0dmGagolLCQmcsOtBnybfIRPnPtvA/oAJPB0tr/m2FdLxJazCmL+HDzYfoUR/niNJehyD43l/8Rlco/7MpCFdm/XFizfEqKPsQhHFJcVcuKjgFeHF6S2bOFJSS+HhJPSOwcS/+wZn3HrzyOQhjXtJp6Gcn/KLKL1cQWVlBZUmD27rG4r7L1WhUg7uzSZi2Nt4SPXIZkjHl7AOQzlFheVUpi7nsWmH6b96E5Nvb4Ojqxeezi09YvWkvz+Fl7cdRastosquL3P3rmd0myLKK9J459FpHBm4ig1Tbkfj6IqXp3Mjbho6DsYN5skt566047YdzBuH1vKQ65Xtnj+aQW1QJF3aWWjXRJOT+6GwDk17Ovl6Y9JmU+wSxYD+/vj5+thAwALYEzFpLTu/XMEYXzV2QVFEd7anfSdfvJUcsotd6D2wP139fPFpVMACONBv3ufs/XQ6UXUvPtSE9CTSpeF2vcMlYG2NhKywHlMpiQkn0ETaZnus8XwqR88pePaMJkgDYOJSfALZmh7E3MAOqR1ccSvK4UwtgB0+PaPws4V7jvivJGSF9dQkEZ9m4NboaGyxo7w8IYETBmci+vTA/L7jGpKOpGMIiSaq443skJ7MhFTKFEDVnsiY2+VV9a2ADV7aorXQZyWRXuFHVB8/7ABj7g42fmUrk55Uk3I4jeo2YcREOZsX6bNITq/AN6qPuQZqzGXn+q9o9PBfYz4JSWcxAjjcTm9brN6LX2mFIaunNPcoSYlHybvUcDI4Q1keRxOTOXGuwkY+yLZDX5rLscREjuVdajgFn6GMvPREUrLOUXHVQa/N1XLOPoSIMHswnmXnmkRcwj1s46LUZxGfchF1UDRRnetKXJuLtsCekMgw7DFy9tM1JLmEN34kwKVEkk6YZ3vRdIsiqkMtF7TpJCVlkFtSZQ5fYXNa1RCuyxkfs3j2Cg7UdCHYrZys1DMY/AfxzPxXGHBmMc+tPEbHkFsozziBMmA2qxaNpmurOgJWUJ7B1oVzWHmghi7BbpRlppJj8GfgpPm8PPAMb/59JcfdQ/Auz+CEMoCX3l3IKH/zQXeMGc4I/00c2rQObVE+Lg/O5HGflhexpvIM/rN6NbtyHPHsYKBC3YPHH9ORlKfg+XA0wT9fQ44xDBvpz+YfNrM+5ycKXB5kxgSfRt80qpPjSa82/11TsZ8593xEmUcwPnYFHE0rwS12HNNeeo4Rt0rPly1pJUO4TFzYt5C/zvqRiLnvMHtkEE6YKNzwGIPn/0htOxec2/Xk+Y/eZ4zuXzw36X/47pwD96/8gaXDWsqgbhOVhWfIu6jnRk6Iija4dgnCuxmfmjJd2Mfix17kcGQcy+JGEuQEpsINPDHgVQ7XtsPFuR2RM7bw7lgdW/7+N97ecw6HEe+QuGJYvbXouFB4GWcvj7p2zZZFf2Y7c55ZzMn+b7J27t10soPKlKVMn7WdH06VM3DZAVY90L7B7+hKCqlw8cL9unZIT/Ki+3h0bQ5GoF3oeF5bMYcHujkDOjKWjWXM8qOYbhnN8h1vMcSz5d2MxLW1inqcqfhrFs/dhe+sT3h1pM+VITOKggIoVVW4j5/CuGD4fsZq9hbUgMoFR8df775RV06FoR0dnJr50BhSWPX4n1l7Un+DK7An8OlNfB0X3aTF+k2mYnYvnMsXfrP49+sjuaVeL7hiPuhUeYzn2UeCYd8M3vuugBpUuDhe3c7ogLtXS4xXMJXuZcHTc9jjMYNtceaABXDqMZa+7u/yXW4von9uj63HwcPr+m8YxnwSEuvaY9vFMut/F/DAL7V6B4KiwvFQH+X8uV1s+ux57n3S1zaaVUTrCNmqI19x2G0cq+sHLDqOHztlfuGcujN33B2BPRq63/sgd544iBIzhckDrnwUjAVf8MbspWw/cJq2j2zgh0V3Ne9OaHoza3cWs5p3qzeuKp6vD3Vk7PsjGgSs7tgxTpsPOp3vGES4PWjC7mVUbDY/KtFMnjrAWiW+TuX88NY8tmrdeOjlR+lW/5NiKKbkggm7wGiiOzdR1NVrj23TPZZYr4brNVy8SLkJwID25Glq8W2RNX/xa60iZJ3vX84P91+1UH+CpNRSzKNhetO3h/mS9Bk6h3VDf70OO59hzF5STOZd/0P7mB4WL7PNcx7O0sPDr1qo50RiKqV1Q5B69asb2uQ7lNkbr3HQb4I+aQmj/7KG7Jrr78J0CH6GY9/M/q//x5i3nTU7ClC8HmH4HQ2blIznE0jQKniMqdcee5OqkxPq2mPt8OsdjXeD8bF6TmaeoqbuX23sJV5tSasI2WsxFiaQnGfuj3WI6EtUI/oKKhPiOU4Y067xFVA0grGQpKS8uiFIEfSJsVwHjX3IaGYt6EKhTrm+NmyVCgevXr/zn0wU7vmalGpwG9KfyKsy7VL8EbIMzsT2iWyi2qSBU2nH6sbHuhEZFdpwfKypiJSUuuNKG7oGB9CmSbYrmkOrDdnLCYmcqAXQENInhqvHhptMJtTq+gt1pB9OoTrwIaK8rNHaVc7Jvd+S8pP+OmfMN1Op7PHseQ+DQtr//n+2lMuJJGbVAqAJjSH61wcdk1rdNG2Jzt0Y8FC3pljTNdSSnXkaPfaE9u5J2wY/q6obH9v9yvjYm6bjdHauuWnLPoyeV6W6qXg/36fXtdW37cmA/jYyzE0ArSRk9af+j3kzV5Kovovnls3nfj8DqfHpVAGovQjv5dvg+XFdwiIemPwT//h+Off9XNkynCExpRj3nlHcao2jYsjn4LaNbM+90dEF9vhWhDAo5LYmL9o16U/xSdxMVifaETt9KfNG+GFIieeo+aDjFdEL34YHncXDn6Vo+n6WDmvpQ5BMVF6uArU33W51bRho+uMcSS7FLjDafDPWp/LhhxcZ97e7ufFxKlfOuJ1XEEEd6m/RROn3+0itBlDjNeyvPNioKb1ES9EKQraa/avfYHvqRRT1txw6PZf7OyWx71Cx+YEDTSCh3erVDAxn+PfKHRiHLOGOep91U0k8Cacc6fFMT+t0KGjCmPDuDiZYY9s3oHrfapZ8ksZFRc2eg6eZM6ITyXsPUWw+6ASEdqt3HA3kbF3JTtMQ3ryzpQcsgB23+HRGrXLC1bVhoFUmf8H+PAX3MVF004AhbS+Zhvtu8pqxxz/IF7tvTqFyaItjgy9Y6axfd4AKQOM7irgXB/P7b/MyUZK8jQ078wgcN4XRYS1lmOIfUyv41qGgKAqonAgY/g/+2q+W9LXL+bLKFRcVoDKg15k7R4wX0vjX88+wunwcC14c2OBirUyI57gSRlS0tMc2hqKAggqnwOFMe6oftWlreWdXFa7mg45BrzPf5IwXSN88nYkrLzNu0SwG2MT7/uyJePghIuzPcfpU5S9LdSe3smjdMUxqOzx9vNGgI/XLXALuCb7J2oo94WMeJcZFhSHvIPuz656ZqzrFp3EvsC5Tj0PXYcz/YCFDGzM+1pDNlnnzeG/je8S99CHZ8spwq2oVDyMY879gwdTX+KLMmwCnEgpUdzFz+XT8Dixi4fvfklXhRnCQC5cKyvAZ9gKvvvgAwQ0a2nQcjBvEU4kP8u9dLxDeCur3Fmcs4MvXprLg8zK8A50oKVAR++Iynu9ygMWvrWFPZgVu3YJwKS2gzPc+pi94kZEND3oLV82JrXN4YX019/5lIO1yU8isDueJmUO5tGwCccf7MenuChIvD2f+9Fhcb7q6YuJC4ib+ueR9Ps+yIyi0MzU5xyiwC6X/6CeYMnk03Rvd3F7OkWXPMntLPg6uvZi0/W1GSd3BalpFyJrpKM3LobDWHf8AT9r+ctGbqC7Woi0G965d6eR0jfYsQybLR45ka/ha9r45UMYfXgddaR7a8wY6BvjjeeWgY6ouRptTAh5d6NrJqeW/6eA3GMrzycw4h9ovjFCfn+eG1VGclYaWQHqEejTxTFlGqorzOVtYicbdB1+vDjjccIDrOLhgMcXPzZeQtaJWFLI3zlS4gcf7v0X7Nw+ycvBRtn3TmfEW67kWopmYCtg8fxu3zX2enjJnotW0gjbZm1ebc4azShC3hztRvm83J5w6W7tIQtw0Y85uTnv9iXAJWKuSkAUcbhvCiAgdyVtXsSI5hPGDrDjWVIimYMxjx7qzRI3p3hqGENk0aS74hZ7ScxfRdPbCxVYbEIWoU3l4I1uNw5lwp7vUpKxMQlYIISxIbnJCCGFBErJCCGFBErJCCGFBErJCCGFBErJCCGFBErJCCGFBErJCCGFBErJCCGFBErJCCGFBErJCCGFBErJCCGFBErJCCGFBErJCCGFBErJCCGFBErJCCGFBErJCCGFB/w+hKhxF1npFmgAAAABJRU5ErkJggg==;" vertex="1" parent="1">
          <mxGeometry x="608.997885105299" y="366.0007082201088" width="345" height="105" as="geometry" />
        </mxCell>
        <mxCell id="0ZkBP9dp2YlqK50nAH8K-66" value="" style="shape=image;verticalLabelPosition=bottom;labelBackgroundColor=default;verticalAlign=top;aspect=fixed;imageAspect=0;image=data:image/png,iVBORw0KGgoAAAANSUhEUgAAAc8AAABoCAYAAACXFnvJAAAavklEQVR4nO3deWCMV9vH8W9mJjMkIggSEkSihFJLYqmqtraHbuijC9V66a7VVksX1NLSai3dra2tiipCtFr77tGExB6yE0mzbxLJTGbuef9IkDAZGRJZXJ//mHsmJ8nk/Oac+5zr2JnNZjNCCCGEKDVVRTdACCGEqGokPIUQQggbSXgKIYQQNpLwFEIIIWwk4SmEEELYSMJTCCGEsJGEpxBCCGEjCU8hhBDCRhKeQgghhI0kPIUQQggbSXgKIYQQNpLwFEIIIWwk4SmEEELYSMJTCCGEsJGEpxBCCGEjCU8hhBDCRhKeQgghhI0kPIUQQggbSXgKIe6QHM6sX8muBKWiG2KFQvJ+f7bH6Cu6IaKSk/AUQtwB2YT88BazIu/Bz+36bsdEbkYi58NOEnz4ACGxuRXSwgIqGrR35/jkN1gQklOB7RCVnYSnEOIWmciKOsymhdN5d+h/GPjpQSyP1xTiAyYyNaQPU9/vSu3rHtUHzeONYcN4btAgnh36Ct8fyKb8xqYK6SGrmbfhLMaSLqndhTETunNowgQ2x1XmUbKoSBKeQohbYoo7yPo1a1n50zL+PBxJut5s8Tolbh3TvkpjyCfP0Ux94+O6zmNYtmULXw1siJ2mFX6d65Vtx2TKJSM+ijOHN7P4kxE8NXQi87aGkm/lKTqfkcwYls43n/rzr+SnsEDCUwhxS9TuPRk54Qve6+9mpSPJZPc33xPVdwxDPC0k5xXGGI6dSsGucUf8mlq5zmYmLvpP4833Z7BkRzx1PV0wW0vNq9Q0eWYMvcK/5ttdmWXYHlFdSHiKu4RC6rYv+Gh5aMnTdeIW2KGx12JXwqOmyFXM31yPwc/7UtPKqyhpQRwJM+HUvgv3asuyfWo8hszk19U/M3vSazzZsSHakhp7PV0nnnnKhS3z13LeVJZtEtWBhKe4S6ioVfMSh1f/wRlJzzvEyLmNmzjdegCPNbc+mrwc9A+nDFradrUesneWGq8BffE+sQH/c/KmEcVJeIq7hq7LQHoZ/mZD4OWKbkr5y40n+O8DRBqB7Aj2rFnO77vCybxy/86USdShAPaFF4RCbuIZ9m34hZXrd3M21dowK5f44L9Zu/RnVq7fwakkK6FiDGPrtgiadeuOu9Xs1HPq8DEuqVvi61fG9ztvk7pZD7o1CWfbX2EyYyGK0VR0A4S4Y3R+jBzlwbCvl/Gs72ha6yq6QWVNT9zhANat38Sf2wKJzu/N7D0aNrz0MotOXQa7BgTP/JQmR1fz167DnEuBXrPvp37QDMbO3Epcrh69EbTuA5i64jue9iqeeKa4nXw9bgqblZ48O6gb7pdDWDh6Mel5GRZXxyopQRyJcqT12FbWOxpjNIHBCeD2CJ09C680JXP018VsjlFQ58ST7DGC6WNuXKlb7jQtaetTg2VHgkhR2nDDLhtx15K3griLqGny3DTG1FnD+M92kFTdVlEqevLs3fCupyflkhFMCeyYt5NG7//AZyMeoLmHN57ePRg54Q26OZswY+Lssvf5MfEx5u0/yYmjm/iguzP5cVv5btF+iu1yzDrIly+9w1rNKBav+JzRQ59k4Avj+XbeCFzTsrC0zjb/5HHOGZvi5W39M7qSGsiRCBO1OnSlrQ4wxBAwbQa7G4/gw+HexO7axl9LfiOwQuoWaPFq0QRj6HFOl2qhkbhbSHiKu4vGkyGzv+bxmKkMfel7DiRUo8k4VW28fR9kwH97FmwJMWXRoP9Yhj/8MM9N/YVt+1bxmq8jNZ3vxcdTDdjh1HMcc8f2xdtZg6p2O54f9iBOdgrJwYFEXP3R6AmZ/ym/RLgy6O3naVlkxK5q2JtBDze00JEopF+MJ1Plgqvrze53BnLKoOXezr44GKLY+NkPXHx0Cu/1cUeVFM2Fy4549+tFW/uy+kHZQkMjtwbYZf5LXGZ1+7QlbodM24oqwxi6nNdem8WB2Mu3sInejpqN23BfU6fCF9OReehrRvXdyIOvTGfu2/fjXMbtrTBqNWoA+3vo0N7B0gWoC9POobZzsU5AU9+FOirIzski20RBD3F5P7+tj8DkPIgu910/121HjRo1LKy2VUhJSQPH1jhbnR7Xc/LwMbLV3vi1SWTt9DXkDJ7M6E4FE7S6bhP48/gHqDUV11XpnJzQEU5SogINZbwhCkh4iipD06w3L4/OwDs0HYPZ8ob8ktjZ2VPHuwPt3GsCZrJCljLzWBo+vZ7mxUEdqk9wFmVX2j0ZRZ+juiEIDaGBBKeZUXm50qDUL6mgz9WDvRarA0ZjFIHBiZjtTPzx+XyGTZvNS/fVKnZJRQYngEqnQ4uevDwZeYprJDxF1eHgwf3PvcP9t/UiCil7v+Dl9Tk8uehvPnzElbLckl8dmRISSDEBJqNNI36VRgMmk8X7oVcoSYEERZpw7jyAwW0y2DW2L7+69uKVDz/k2fZ3fHmQZWYFM2rU0luKImQOQtxVTLHrmTThEF3mLOUjCc5SUanVqOzAlBxPfKkXzaip5egAubnkWkncnKOBnDHUoMPA0bw+aS6/BCxisGETn7w0gYDkyjHSU/Ly0OOAo6O8W8Q1Ep7iLpLBnm9/5EL/KbzTva68+UtJ7emJhxrICeF/R0p74omaRh5uaPLTSb1UUgjqOXH4GNkaHzp3Lvx9OLbm4e5NUaWf4dT5ghVLSvwmFv8eQ8UU+VFIT0nHoHHD3U3CU1wj/Ye4ayhxm1mxtzkjXvPDsaIbcyeUeF/YXPJUqqIUPFbkAk2LvjzSUgNKAn/OX05osfzMIy09GwUzRqOh2Etpm3viTjwXYkpY0WyMJCg4CbumfnTxuBJMJlIT01BUDXBz0wAKSbv/R5Jb8VkCJTmYtbOmMnv9Gcr34DAjF2PjwL05zWuU6xcSVYyEp7hrpB/cQ/h9A+hdv3q/7U1ZmWSbAWMqiUkWxmtKGumZBemo1+uLBak+OZkMBcy52Vy68lSNDy+OH4q31kz2P3N4+ZWv8D8QSmxsKDsXfMKCgzmAmdRdPzB51nL2Xyx4otbHl3a1EggPy7RcRCExkKBIhXqdutHmaj1bNXXrO6Ou6UojFxUYzrEhxJXHuxYt2mck/NcpTJm3goUff8xSG0rn6VNSyTaDKT2V1NLMCiuZhIUl4XSfLz5lWnNXVHXqqVOnTq3oRghx24xZJF6I5WLsBc5HRxBx4TK13OvjUGR1qKauF116dsOrToVsGCx/pnj2zpvC5DmbOJ2RD0oip4OiScs04NzKB1cdmBIOsXLOTH7eFkO2opAWeZKYZA3uHT1ICJjLjO83cTbdCPpYTh+PR9u8C+0a6ajp+RADutTgfPBxQk8cYqv/Klas2sm/ni/y4j2n2BvnxgP9+tGr3wB6+NQpKL6udiYrcAX+qffx4oAWN6y6NYT8xncbL9Dp1Qk82erKsE5F/WZORP/9F+fy7biwaRsMeZvHmxYd9qnQkcyxwChU9TXU9Pwv/VqXnGz6A3MY+c4XLPrhG+YFhGHU6rBP+YfVS35l3cYAtpzU0b1Xa5wsrSTO3ceSz3dS/4WJDL7XocQC+OLuY2c227jmX4hKR8/Bib0ZtSr+2ginZm9mHlrMf+tUZLuqIxM5CeGEJWhp2toLF53Cpfh4DPU9cLGQXxkBo+k9w4nZe77kkesrvhsSCT2dTeP23jhfPxmQE8fJU/9Ss2UHWtQteZmr/sAMvkx+h8mDa5V4ze24vHM8fd7PZeLeH3isWu5nEreqes9fibuEjvsn/8Fu//fwK+zANa060sGpYltVPalxdPOhYwcvXHQAKpwaWw5OgDp9hvGo/R4278268UGtK607WghOAEd32nX1sxqcoJAabcDZs7zmUzPZu3EvNZ58nl4SnOI6Ep6iWlDp6lA3KZqofAA17h39aCKLIyueQ3dGv9uBoGVriS7r5bKmGLZFuNKnXfmEpyliFUuO+vL2W10r0TFporKQ8BTVhIHQoGNkmgG72nTo0hZZ31EZqGg0+ENetV/NnICEWyirWBITF/yXctFvCK3Lo3iBEsfGr9ZR6/XxPCEl+YQF8q4Q1YPpIkFHYwv2Aura4usr+woqDbUXz88Zj9PKqfweWUaF+HOOsC+jP288Zqko/e0yELl6GmvqjOer4V5SSENYJOEpqoeMIxwt3LKguccPP+d8UmNOcPToGc6nXK6gDfbiClXD/kyd9RiR837kf2VxOoljV4a//AAuZd6DKWQcmMusY/344rP+NJAeUpRAVtuKaiF3+zgeeW0DqWao0bwTPsZ4Muu3wF0dx8njKdTt8Sxvf/QuT7S0dMqIuGMuZ5ChrkOdSnwQeW5KCsZ69XGS4BRWSKljUQ0YCA0KIaPwY6BK15LhC5cx8J5agJ4z3zzDkG9/Yvy5VLQbZ/GfWxxOKDkJRJ1Px2C11HlJ7LCv0wTvxrXu7ukehzpU9t1DNevXr+gmiCpAwlNUfaaLBB0pvN/p0IMPfprOQPcrEaXD268d9VUn+Tf+T37ZPJa+ozxuIcCMHPt+BC8sDMdw84st0nq9zPItE/CrxKMuIUTpSHiKqq/I/U771j3o4VY8Go1paWQpAEZiwiPJxwPb80tDp4+2cvqjMmhvKd3T3OvOfTFR7sKjoyq6CaIM3dUzSKJ6yA0O4kQugJomvp1pVGx5pIHw0AjyCv9lr5VhnxDi9kl4iirOSMTxU4X7O+vSwc+n+P5OJYmQkAuFq23tadai+Q01VoUQwlYybSuqOD2RYecxAmjb0LFD8ZGlkryXfScK71LW7MhDPevf8ifGrLDd7AxOxHBr64XQNuxI716tqF3Kp8g0nxCVl4SnqOKuJZnazRvvYoVSFdL37eFYLoAKt0dH8lSzW93ybuTigd/5Zd158m91tW2TbFr2bMW98lcnRJUnf8aiitPi6e2BensEdrqa1CianfoTLFu6n2xA4zGIiR/25tbre2toM2oeG0bddoOFABRSgteyfNMFvJ59k8Ft7orj2asVuecpqjgt7YYMo4uTHcYLB9kbpi/478sR+E8cx9JQA7pmjzL15xn0r8LlYgxHFjJ9dXiRSkkKCX9+yTfb0iuwVTbKOYP/yp0V3YqbUEje78/2GH3pLjccYdGnawgvUsJKSdjCrLnbrT/PGMaqyZNZsGIBEz9aQlgZVS0Ud07V7U2EKKT2fpGvl0zm6XaJLHquD4OfGcKAhx5nyoFaPPz6HH4P+IFnW1btVbaXjm9h+bYzRfaYGonZt4YN/8RWYKtskB3MvDdnEtmis4UHTeRmJHI+7CTBhw8QEpt7x5t3jYoG7d05PvkNFoTk3PzyrOP8tXQboUU2/xqj9/Hb+n+sP0/TmK59utCkQVOa5UVzJs/65aLykWlbUQ2ocPEbwedrhzMp+SKxCTloXNzxcHNGV00+Hpot3Gc1K1Ch1TVNWUQH7WLH9l3s3R+Nz5R1THrAwocUJY7NEyZzrO+PzO9243IpfdA83piykXMxMaTkannw8338NLRmOX2yV0gP+Y3V0R159Skfyx1g7S6MmXCCV8ZOwP2nr3nC3UpLzNz4mzEroNzs91Kbru+uZNe7eg5O/4Jkm74HURlUk65FCAA1Dg2a0apdG7wbV5/grJxMxB9Yx29rV7Bk2R/8E5lewipkhfh1U5mT9jQTn2tm8YQSXecxLNuyha8GNsRO0wq/zvXKtmMy5ZIRH8WZw5tZ/MkInho6kXlbQ8m38hSdz0hmDEvnm0/9+bfszlG7kZJCtMGZZnJ+XpUj3YsQ4haoafzQKD76Yhz/aWSlG8ncxXffRdF7zDNYXehsjOHYqRTsGnfEr2lZHgJm4qL/NN58fwZLdsRT19MFs7XUvEpNk2fG0Cv8a77dlVmG7bmuddHbiHTrRzmd5y3KkYSnEOLW2Wmwt7cr4UETUat+5I96gxnqV9PqyyhpQRwJM+HUvgv3lmmQqPEYMpNfV//M7Emv8WTHhmhLau71dJ145ikXtsxfy/nyONPOdIGNS2PxG9Ja7p9VQRKeQojyYTzHpo2n8RnwOM1vMpi8HPQPpwxa2nb1xXrM3klqvAb0xfvEBvzPlf1y2JygPWQOeJMBDaUbrorktyZENZQbf5StByIxAtkRu1m7fC27wzO5evvOlEnUoQD2hReEQm7iGfZt+IWV63dzNtXKMCs3jpC/17D85xX47zhJkpVMMYb9xfaIZnR7wMPivc5r9Jw6fIxL6pb4+pXx/c7bpG7Wg25Nwtn2VxhlHZ+O3V5k1AMuler7FaUnswVCVBf6OP4JWIv/xj/YHhhNfu+57NCs49WXFnL6Mtg1CGb+6n6cW7SCv3Yd5lwK9Jp9P/WDZjB25lbicvXojaB1H8DUFd/xtFfRyDMRv3MOH0wJQOn5HAO7eZATvIAxi9PJy7C0okYhJfAI0Y5taNfqJt2MMZrA4ARwe4TOnoXXmpI5+utiNscoqHPiSfYYwfQxXUtd2rDMaFrS1qcGy44EkaK0wU2SThSSt4IQ1YSiz8PerQV19SlcMoIpYTsLdjRi7I8zeOGB5nh4e9Kw0QOMnPAG3ZxNmDFxdtn7/Jj4GPP2n+TE0U180N2Z/LitfLdoP0V3OWYdnMkrb/+GZtTPLP38LZ59chDDP/ie7190JS3L0jLbfE6fOIuxqTdeN8lOJTWQIxEmanXoSlsdYIghYNoMdjcewYfDvYndtY2/lvxGYCnrFpQtLV4tmmAMPc7pUi00EncLCU8hqglVbW86PfgoT/X0RA2Yshrwn/de5KGHhzJ55U52rX6ddg46ajrfi4+nGrDDqec45o7ti7ezBlXtdjw/7EGc7BSSgwOJuDJPqQ9m4bTlRLoO5q3nWxU5C1VFwz6DecjSPTslnYvxmahcXHG96f3OQE4ZtNzb2RcHQxQbP/uBi49O4b0+7qiSorlw2RHvfr1oWyHH4Who5NYAu8x/icsszz0roqqRaVshqhm1piDM7O/pyH0OFq9AXZh3DrWdi3UCmvou1FFBdk4W2SZAA5f3r8E/woTz4K60u74Ggl0NatawsHxVSSYlFRxaO9/k4HE9Jw8fI1vtjV+bRNZOX0PO4MmM7lQwQavrNoE/j3+AWlNxXZXOyQkd4SQlKiCLe0QheScIUU3ZlXZLRrEnqSj+NANn/zlKmllFvYYNKPVLKnry9KDV3mS4aIwiMDgRs10af3w+n9whE3mpU/E7mxUZnAAqnQ4tevLyZOQprpHwFEJYYSIxIQUToJhsCQ81ag2YblKmTkkKJCjShHPnAQz2dWDX2L70GTaR345n3Vary5RZwVz4/QhxhYSnEMIKFSq1CjtMJMfHWy1pV4y6Fo4OkHs5F2uRm3M0kDOGGnQYOJrXJ83ll4BFDDZs4pOXJhCQXDlGekpeHnoccHQsy8pHoqqT8BRCWKHG07MJaiAn+BBHS3vgiboRHm4a8jNSuVRiBuo5cfgY2RofOneuW9AZObbm4e5NUaWf4dT5ghVLSvwmFv8eQ3kU+bk5hfSUdAwaN9zdJDzFNRKeQlQzVyZKSz5wxdIZLYUUpeCxqxdo8O73CC01oCT8ycJloRTLz7w00rMVMOdjNBR9QIunpwfEned8SdUFjJEEBSdh19SPLh5XgslEamIaiqoBbm4aQCFp9/9IcnMtVmhBSQ5m7aypzF5/hlIcHHYbjFyMjQP35jSvUa5fSFQxEp5CVCsmsjKzMQPG1ESSLA3XlDTSMwvSUa/XFwtSfXIyGQqYc7O5VPhcjc//8d5Qb7TmSwTOGcnrX27gYGgssWd2sGjSfA7lAOZUdn0/iTnL9hW+kpZWfu2olRBOWAlbPJTEQIIiFep16kabq/Vs1dSt74y6piuNXFRgOMeGEFce71q0aJ+R8F+nMGXeChZ+/DFLbSidp09JJdsMpvRUUkszK6xkEhaWhNN9vvhI8XZRhISnENWEKX4P894bwfu/RmECjCELeHvs5yzYdIIry29MCYdY8enHLA3OB4ycXfkhH3y+jlPZWZxY9wXjvt5FlhnMmTuY9dokVodkg6ouD01dzdIP+tHcIY1DC8bxf48+zIBRi0joM4r+rjpcWj9E397debC379X21PDtTkfNKY4etXzSc37EOc6bnPB90LfIdhYNbYa+wQCXs2xZtpIFU5Zh98wo2hcLLg2Nu/Whc5MGNPXMI+YmJ0nrD8zhhcFP0L9HFx5+fzt5jk7UPPsdT3bpQd9HB/HcR/7ElxSkeUc4csoe3wf9kIGnKMYshKj0kn96wtzi/zaaL1/9H7350LgO5h7Tjt3Zhhizzf+GBpuPRaSY88xms9mUaY6PTTHrLV6cbg54vb25+/idRdpdhD7BfCY4wpxhsvBY9kXzicNB5vC0fKvNyds/3TxtwyUbv4nSy9kxznx/+zfNf2SUcEHST+aBniPNm4p8g/qD482+3T4ttzaJykFGnkKI0lM74ubTkfbeLgWjRVVtGnm4YHlGsw69n38MzZ4A9lnaeaJ1pXVHb5wt9UKO7rTr6keLutb2hyikRhtw9iyv+dRM9m7cS40nn6eXczl9CVFlSXgKIcqNQ/c3eadDECvWRpX9allTDNsiXOlTTidJmyJWseSoL2+/1bUSHZMmKgsJTyFE+VE1ZuCHr2K/ejabE8py36aJC/5Lueg3hNblUbxAiWPjV+uo9fp4npCSfMICeVcIIcqV2vsFvhrvxKopa4kqq0Mxc46wL6M/bzzWsBw6MQORq6exps54vhrudZOzSMXdSsJTiCpAa69Da1+8TqxGa49WVxXWgKpo2P9Tvnw8gvk/HCqbl3TsyvCXH8ClzHswhYwDc5l1rB9ffNafBjd7fZ09Oq2GYr8ZjT32Ouvl8EXVZ2c2l7yVWghRSWRf5EJuI5o2uDYOUjIvEKd40KRu1fkMfDkjA4c6dSq6GVblpqRgrFcfp1L9WLO5eCGXRk0bXBuhKplciFNo2qRu+TVSVDgJTyGEEMJGVecjqxBCCFFJSHgKIYQQNpLwFEIIIWwk4SmEEELYSMJTCCGEsJGEpxBCCGEjCU8hhBDCRhKeQgghhI0kPIUQQggbSXgKIYQQNpLwFEIIIWwk4SmEEELYSMJTCCGEsJGEpxBCCGEjCU8hhBDCRhKeQgghhI0kPIUQQggbSXgKIYQQNpLwFEIIIWwk4SmEEELYSMJTCCGEsJGEpxBCCGEjCU8hhBDCRhKeQgghhI3+H10qCv3STCe4AAAAAElFTkSuQmCC;" vertex="1" parent="1">
          <mxGeometry x="501.997885105299" y="283.0016801120925" width="463" height="104" as="geometry" />
        </mxCell>
        <mxCell id="0ZkBP9dp2YlqK50nAH8K-70" value="" style="shape=image;verticalLabelPosition=bottom;labelBackgroundColor=default;verticalAlign=top;aspect=fixed;imageAspect=0;image=data:image/png,iVBORw0KGgoAAAANSUhEUgAAAhEAAABJCAYAAACD3HShAAAgAElEQVR4nO3deXgNVx/A8W/uvRJZhJDUFmQjEWsk9jWWorZSL6mlrb4orV0pRasUrVaLWrq8fYu2qNqVllJUUZLYInuCqFiSyCZukpt757x/RN9KZLm5bhA5n+fxvH2TyZw5vzNz5jczZ85YCCEEkiRJkiRJJaR63BsgSZIkSVLZJJMISZIkSZJMIpMISZIkSZJMIpMISZIkSZJMIpMISZIkSZJMIpMISZIkSZJMIpMISZIkSZJMIpMISZIkSZJMIpMISZIkSZJMIpMISZIkSZJMIpMISZIkSZJMIpMISZIkSZJMIpMISZIkSZJMIpMISSojlNsH+HDGesL1j3tLJEmScskkQpLKCJWdNXdObmZvqMwiJEl6MsgkQpLKCqtW9OuuY/+202gf97ZIkiQhkwhJKkOs8Pv3KJx/Xc6GsOzHvTGSJEkyiZCkskRdJ4D5kyvzw/T3OZSgPO7NkSSpnJNJhCSVKRrqDfmYZf2vsOBfo1l17CZyhIQkSY+LhRBCPO6NkKRyQR/Ot2PG8dHvf5Fpwk0EC+uatGpW7++VkRAezOV0W1w6jWHhiom0qWzWrZUkSSqW5nFvgCSVG5p6+I8ZT6pbBMk5ghJl7xYWVKjiTtumtQAQ6edYt/gcyV5dGfzKAJrJBEKSpMdA3omQHi9dPEe//QWl7yj8q8una8ZQEo/ywauzCWq9iLWz/amuftxbJElSeSV7bRMZrmxm0vPT2fmUD24rlXoqKZxat4h33prBm6NGMP79jZyMf3qe7JfqvmH4i+1z5vBnq4/5+m2ZQEiS9HjJJMIkBq7s3cyBKwo2dk9zCEupniobPLoMZezbi1g0uhWVzLfmJ0Dp7hupv61kbVwv5k5rh8PTvOtJklQmyG7IFEoKwacjUDdrjW/Fx70xpajU6mlFNRcPnCtbmnOlT4bS3DeUeH5afxSXV8biZ2vmdUuSJJlADqwsAcO1Q3z93SmSdDc4FayjosdpvlhyiSp+w3mtZz2eljvL5aWe5vRIYpZynKNRTen1qeNTmv3fJWzbDm62H0bXGqVUw7th7Nhxg4EjupXO+ouiJPLHzrPU6fMs9aweffGPxyNo0/sZFWOFxGO7OFfnOXq4lJuGKDUyiSgBdY2WPD/Ck7vnVrBvXW16jpvEyMYVqFilxlN1Yi0v9Swx3U3+3LyO3aevkKqqQs069WjQvAvduzakmhlipk+/RXxCMnfu3OXu3bsojo1p7VXtn4ShUgcmf9EGN6enMYXI4OyqiazUjmPFC8bXT0mP4tDWPZxNd6J51150afoMhd7fyjjDmgnL0Y5bZZYtLjGVE81qn2PSuBgmrXodn7J4N0lJJ/rgNn46k4aTT1ee9W/KM4UH3KQ2fShGxViFU7PanJ8wntipnzGuTDbEk+Np7I1Kj8aeZ5xrolyJIrGSH507uVDHuTZOdk/ZqbW81LNE7nJqzSf8ZuvP8NFDaV/tLw7+9yPmjp/Efy7oHj5m2X+woHd7uvfow8BBQxgxchSvLTtM+v3LWNaisU9dbMxRHX0k373WjbYdR7Im6HF/iUPh+u45zD/bnfnTW2Nv7F8lHub9gDFsoQfD2t1hw9gX+eBEZiELx7Pn7Xc412MhU9sYW4L5VWo9mVntTzBv9m6ul7Ux2UoiRxa8yGubofuIdtxZ9xojFp+g4Iib1qbmYFSM7Vsx8e12nHj7bfbEl7WGeLLIJKKklBSCAiPRNH/6x0MUXk+FhE2v4uPuRn1XI/7Vb8e8I2X8Ww+6MI6EV6fvgNY0au7P8He/58CRbXy57nPe8Ll3KfYw+4ZVO+bsPcrWaS3vXUlraODjU3qDTrURnDx5maRrgRw/fxtDaZVjBCV+K+8tTWbwvADqGZ2najmxfB6bUtrz8lBLdixYwalbt4i/riuoBK5vnc+y5H8xJ+BxP46zwnPUEgJSP+H97dcpS6cv7fHlvPt9Cu1GDcFy20JW/nmLW/E3KDDiJrWpuRgXYyuvUSwalsLyBTu4UZYa4gkjH2eUVFYwp8/raTC65dM9Or7Ieqp4ZuhajnRPL7ADyc9CZY19tUf57FFL2N5D6Dr0o7nZJmHSYHH1N/ZfmEDTFrl1sarug3/1+xZ5qH1DhVWVqiReuUQOgNoZH786pXfCs+/NnC8z8YmuTrcXSrGcYqVxePlnXOqxjOUuJdiKzBPs3n8DyxZ+NLGuhe3Q4SSntGFEvwIaPO03Vq68RLdlKx/DCa0A6jr8a2I31k9dzuEeS+lWJiYKy+TkrgPcsPTBt6k1NW2HMCw5ldYv9eXBzTexTc3JqBirqTNkIl2/mcqK37rzQfcy0RBPnKf5NFgqdBHBXMiog1/r3I7XELeTDb8klKkrCmMUW0+VFZWdnHAy4p9jNbvCn1OXBv1l9n36MbujjElxjGTZAN9Gt9m0+D8U9gHNh943dGEEnktFABb2zfFrXJpRs6RWmwBGj/TH1SzPR0xjiN3I2j1VGTjcF+sS/J0+5jyhqSpcvL2xVdnjM/Jd3p3UE/cHclUDlzau5qeqA3nRryQllC6rFgEMrLqXL3648ljvAhlNH8P5i6moXBrhbavCvsVI5r03kWcfDLjJbWpuRsXYqgVDBlVj39otxJWJhnjyyCSihHLirnDd0pOm3pZg+ItdXwZRqcnTN1r+kdVTURAYEGbNwhSEEJh3LlZbOgzth+P5Vcxcdoo7BSzxsDEzXAvkzNXcnsyqiR8tnubHZQDoidy5i9CGvenjWpIrVoW0kAtcMdjh7lWv6Nup+kh27QzFq3dfSlREaVO70fNZD0K2byeyDMyzpqReJOSyATsPT+oWHXAT27QUGBVjNW69e+B+YTs7ykJDPIGetnNfCehIiQshOCiEq6l5Ly31aVcJCTpD5PWMB64iK7bqQz+XJE58+w2fLVpH+qAZDKj9ZIdRlxLHxaAgLl5NJU9N9WlcvRDE2YjrZOSraOnWU0fwf6YzccxIRiz6Da1VAntmjWDU2AnM+z7MTGWYn1WLl3mpTQWivnmLJQcSzb5vpAYFEaUH0ODh60flnNvEXQjiTFgct7Ulu0xS0i9x6ucf+e7bH/nl+AWupSRyKzH/LRQ9tyOOcORCaiF3SzK5Gfo7e79fx3c7DhIUnVjIIDoAA2mxJ9hzNDr3q6KZtwg7uoPvvt3OkfBCxlzoo9h/IIZ6bdpRu0TnmxxCz0eSo3HFs0HRd2v0UT/za0w92rR3Lv6RjS6FuJAggkOukrdL0JN29QLBZyK4kf9AMZmaeu3b4Bx9gP1RT/7JKyf0PFE5Gly9GhR9V7GEbWpK32Q842KsrteBNnWiOfBzlPwirgnK5ZiIO2GbWTJ7Jcey6uLhkE7EuUvoXfwZM/9dOl9awpRVF6nqWYv0sEhE59msXjyQevcipa49gA/29eL2zTvY1XDkiX7LOD2MHxa9zapjWdT1cCAt/ByX9S50eW0+87pc4sOJqwit5knN9DAiRWdmrV3E8y65FS3delriO3oZvqPNutLSdfcKv2/ZwGlRCwclim3zP6SL71KerfZPkvBwMcvk3OkL907SGjKOzqLXpjSqedRGHR/ChaSqtA+YzMwp/alfzOOHu2e/YOKs33AZM5XBvpbE//4lo0YfxGHSPjaNd0N/PZhfduxg774DHA9LxXPaXjo2rZJnHUraGTbMmcsPGV14eZAHuuCvmTQjCK2jGw08Xalup6GC94ssGFePwLWr+Hbfb5yKSILuH9PWKYjFEz/gQHwm2dl6sKxNr4XrWT7ELc+JXEkKJOiSLQ2nehrVERmu7eS9WZuJzckhISIBYchhx1vDOKpWUanDVFZOaJUv5gpJp4O4bOtNE8+iSkgnbNNi5q48RlY9dxzSIjh/SU89/9d4Z35nLi+exOrQqnjWTCc8EjrNXsPCQS4P3XlqPJvgVfEbggOTwLvGQ66tFBiuseud2WyJ1aFLiCRBGMjZNouRR1RY2HdgyqoJtMy3kxvdpg/RN5WEUTHWNKCxV0XWBQWSpHjzKKazeKqIcsUgkg4vEP1a9hZzdsWIjHs/u7FumPB2cRX1vZsKH7+XxYboLKG9+LUY276h8HBtLqbszTBb+Rk3okVYaKgINeFfWGiUuH7HYFxJSYfF+71bib6zd4mYe5tvuLFOjGjgKjxcGwmfJi3FqHXRIkt7Ufz33x1EYxc34Ttxr5nq+ZjlXBBLu3YU809lm2V1d8M2iPFde4mp310UaTlXxYbhTYSHSwMxcGWEyDFLCUKI7CCxpKuH8HBxFR4ujUSf2TtE1J17v8sKFSv6NRAeLh6i47SfRWJRu0DOefFp74ai89zjIuv/P8wSZz7oKwYvjxA5wiDSYgLFyYP/Fa+3dxceLvXFwJVRQn//OgwJ4sD0DsKr2XixM+nvwtLE8XldhaeLq/DsOkV8veVHseNYrMgS2SJLmyr+fK977u/a9xMvv/aJ+DUmVeQY0kTI58OFr6uraNB2ljiS7zDKOjBV+Lr0FSuj9MI4BpF1945IT9ghJjRxFQ2H/kdcSUsT6XcyRFaBq8gSB6c2Fx59VohCizAkiSPvPSfa9p4tdv9zoIgNL3oKDxc30bRJU9H6pXUiOksrLn49WnT2chX1m00S+8zRJeSEiU97ugrfqb+aYWWlw5B1V9xJSxA7xzcVHvUDxNeX00R62h2RUXDAjWpTs/VN+iyRnppR9DFoVIxzRNiyXsKj2VRxMKuIxaQClas7EUrifpbM3YvzzG2817/2P1dFIvezzEKrpVrAGwz1gN+nr+FwfBZYVKJiRTOFSX+W1S8N56toUwf8WeI2+lv2z2lZ9GJKIgcWzWVfnZn8uLA/te67/BO5FUXrGMDrL3rAkel8/ls8WVhQqeJT/xC+xO5e+IoJY7+mwqSNLB3mhgYY+OpzfHlyC+GHDnLldU88zPDo13AtkOB74yFsOs7iy/efp9bfV0RW7vg2cUIVcp0bP23gp6nP8opzIZdLaRc5H5vNXecbpCnwjArAiqZDB+K9SweosHf3o417IxK2fMSBAj58Zri8lS93xUODQXhW/rsce1oF9KXBps8Iv5VJ1Z6Def7vl/+tLWnk7YKaWBT7TkxfMZUm965QG48cRoc1J9mbcIbAaD2dm/99LCmkXLtOmqoa1Y3+ipgKKxs71FcuE6dVUdO7CTXt7Qu/va6kcO16Gqpq1Qv5UJlC0v5FvLO3Dm9uX0i/++6/i9wDBa3WkaETXsSDo8xY/Ru5XUJFzNIlaGpSw8mCtOvxZlhZ6VBZ2WCnjuPKFS2qWg1pUsueSoUHvPg2NUffZIjn50WzWbHtD2KtA/jm6GI6FHbbz6gYa6hZwwmLtBvE/3PQSEYqV0mE9tQv/OkwlDX3JxBkE3oxJvdZmKo67bo2xRINDXsMon3kcUSrNxjf2Uw38zW+zDwQwUzzrK1w2tPsP1GVIV/0y3OQZl+8SGxuRanezp8mlqDx7sHzHaI4KVoyfkLn0t6yskUbyOqZyzjn+hY7h7r9/2Cxa9OV1g4/sjs+jqt6zJJE/DMeogJe7TuS96voepKT03LHLegvEx2bA86F7JN2dXCuasEfB99j9GyFD+a8gLe9CnXdIUwcpspzwKs1aijgKbA+Lo54A4jsbDLvex6tcW+FT3UV4beSuZ1mAPt/Kq5WWeT+h4099vcXonGkWhUVZNwlPcPAP12OQlJSMtg2pHIJDy9tRARxBkvaeHsW/XxeSSTpNtg0rFzIoyUtp38+iUPA5/StnedAITQmNy6qGu3o0tQSNN50H9SeqOPQ8o036GSWLsGKSpWsIDrBHCsrPdoIIuIMWLb1pughKEa0qTn6JnVtes9dSmJ4Jz6xb0XTItvCuBhbVaqEFdEk3JJJREmVqyTCru8K/uib74e6SILPpdx7rc6XNs1y98javd7mm16PfBPNw64Pn/7ZJ98PdUQGnSMlt6K0aNsst2N17sXsDWWtonoiv53Bwp1/kV3QKxgik2tXrqHMDeCincWDv7ewwLJ2P+Z+8jINCz0CFG7sXMPmaHu6rnoh7/wClvWoV1ONRaLaTPMr3DceQl2HFq1q5l2vLpqImKx7/6cClkV1mlbteHVyVw7PPUj4lrcYfHQbAdPnMOmFJjg6Gbc1aicnqqohMT6EkAQFn7/veqjtqGSrwsKmOjUdjK+5qsA+WSE7MxsqWFLB6DUB6IgJiyFL7ULDhsVMV6xkk5UNlpaFlWDHcytP8lz+EiKCOJ97oGDfou29k1Rtes7ZQM8SbWtxVFhZWUJ24cNV825YMB/3H8lXkVklf6XcyoPR3/7EWy1L/tqwLjqMmCw19bwbUnTEjWhTc/VNGYEEhoL3lJbYFblNxsVYZWWFJdlkZT1tL+uXvnKVRBTEcPO+1+qatsHvMb4zX6oMNwkOvpo7St6qKa1bleWKaqjr/xJjqieho4AkQoln1/xVZA8cwxD3gk52FlSo5vX/wbIFUhL57edTZNj3oHvH/JP2GjAYQOVYnRrmyCL00Zy/eG9+CAcf/LzydvRKwhnO3dtHqeCCu2tRp101rgEr+KbiYmYv3Mz5W6f5duZgDuway6KlU+hcq/gN1ngPZGib71n4RyA/rA9i4Jzcz7UrCaGE3VDh8kIAHYvuuY2i0mjAYCioBQunpBERGY9i0wNP1+K6LzVqDRiUkpRg4GbQGXLDbUWTNi3NM814IRRFgNrIbtjSkwGz3qfOjewSvr5sgYVVdVp4mjLviEJ6RCTXFRu6e7kWe8IwqU1N6JuyL5zinNaNgX7Vi33F0KgYCwVxb3+RSqbch+xOYBCROQAaPFu3omq+PVJRFFQFX0qZIJ3owwc5e0tn0hwGFhaWOPl0x9/ThJno7wQRFJEDgMarFS0frCiKSlVm3vm1dvahs3Mhv9SHcO4jW7S+3ejRysQJm3KiibykQ12/MY3zz5iTc41rtwTVujfDhAHjD8qOJTou9/a5pXcLmuW506CQePQIIfeG0Vj7dKGjY3GtZE395xeyuV0/vv94MWt2XODW8dVMGK2wbtsMfIubAUjtxvDP/oN4by7L173Bq6nD6dNIQ9QvB1ANX8FXU9qbYTpuNXa2NpCZmeeRSbFyIgmPyUHj3giv4h4pqO2wtYFMbWYJrtzvEBwYkTtrqMaTVq2r5jsmFBRFdd/dFYWEE9/x3cFYctz7MzbAnbid33Pk0l1y1DXoEDCctoUmbgpZWdlgY+wHoOyo32UQ9Y2uiznkEBkWQ47GHe/iA25am5a4b9JzKfAMidV88CvyrRswNsZKVhbZ2GBr+yRNJlI2lKskQhezlXdmrCJI1ZEpy+fTt46ec6cvoAVQ1aBJi7zvkmcHLmbA+FtM/n0Fvc1xOaK/xvEtG9geV+D1c7EssMQ5wxN/z0ZFL6iLYducGawJUtNh2qe8068O+rOnCcmtKDWatsA5b0VZ0ud1EqYd5dPnyvIdCnPSoc+BitVr4ZivX9GFBXEh3YlOvVub59VXwb39QU11d3fs7+9DlWSOHT6X+6hDVYPeo14oeurm9IN8+4sbw4a4oXmmFS8v3UbP3kuZOPU/nIvYyraTk/DtWvxWqypVp1bNhvSf9ya93UBrUY2uA8dSt7K5ZtFUU9O5BpqcFG7fUcDauPTVkBBOdBI4dPKi2Jsq6po419CQk3qbgovQEbN1LrM+C0LVcSrL3utHHf1ZAi/kfpBMVaMZPnkPFIIW9eWNW1M5vPI5bAAlaQ9rDzgy4Q2Y3PY1XjnUld5jZzKx72VWDHyVuRkNOfROIQOhlWSSUnRoatQ2qu6PhSGBiKgkcOiEV7ETPxjRpubom5QkAk/HUrH5GJoXtysbFWOFlKQUdJoa1DbLrcXypRwlEZkcXfMB288lI1QHORE7l77PBHPkxL1JgzRueNW/b4/UX+LHVTsx9FxKO3OdVzXevLJ2J6+YaXWFyTyyhqXbzpMsVBw6Hsvb/Z7hzOETJOZWFFev+ved/PRc/mEVu5SefNheJhD/V6EBDdwrsE+nyzf0MJMzu38lofFwXulgpnhZuuLurOZQjAVW1hXzXPlmn1/H+mMZgAbngfN4s7j5/XMSOf7TVfwHu5E7lEFNDf8ZzBt2lKGfJ6C7rzKKovz/f/MktUoCh+a/xvpaK1n3kptR4z4Kv7MmyC3mwQUsXV2ozX6uXtFTxPek89CFh3NJr6GBd0MjxlJY4uLiDPvjiCuoiMwjfL5kG+eTBaqDJ7g0rx/PBB/hZO6BgsbNC488XcIPrN6p0POj9vcecSgk7D+B2n8+lW98RpIhm1rdJzO2jSOq7FvUbD2Esc97F755+niuXYdavVyNqvtjoQsnPFaPxrMhXkYMXimuTc3SN2UEEhgq8J7cqpjxEBgZYz3X/oqH2r1xzf+CmpLI2S3r2R3nxr8mDMJbfjX8AeUoiRC5r21Z2OLaZzKj2uZw4asV/KytQiWLZO5Y6NFlK4AKw+3zbJ4/jTXpQ/n0rS4FfGDmySYECCywdevDpH+3Jef8V3y2V0uVShYk37FAr8tGAVSG21zY9B7TV91h6MqZdC5rFS1NKmcGjRvM92/+zP6bAxh8bwaa7PD1rNzvyJgvX6WBuY4eyya8MKw1mxae4K8TR4nKboq3FWhjtjP/za+J0FlRt8+7fL6oN05GXLBnB21g7dGBLPR3uJeQ6LiTrkXl0pcBbe510Uoyicl6QCE9JYX735vQR2/ms81hRNqPZfipBjhXd8DO1hYba2us7Z1wadSGTu08qHzfLf3k1LTcNCE7G939+UJWAompCohMMu7knbfS0suXJnbriY5KQ2nlZMSjND1Xw6JJVznj3djBiOUt8fRrgt36aKLSFFrmD17ugYKFrSvPTXmVNjnn+XrFXrRVKmGRfAcLfTa63AOF2+c3sXDqajICVvJml78PFBUOz77JhKpWpG4OIc7Sj1d71s7dLqtGvPhu0XcMlbRIom9Voqlfw2Jr8rjo48KJTldRu1Fjoz4qV1ybmqNv+ns8xPMtjRgPYUyMlTSiohKo1NSXfMOR0EdtZP68NYTpK3DOuhE7JnkWH4RyphwlETZ0m76Q4ZcXsC/kB+a9sJp4i47M+XE1dY4tZtEXB/mwlz/b3CuRGp9G7efeZMPSAXg8Od/sMZpN9+m8N/Iy7/8Uwpa3B7Mm3oIO72zhs7rHWLLgSw4t6U33re5USoknzbk30zZ+SP+yWNFSZt95BiumL+L9KTNIeMGfOlkh/Lw3jvafrmV8U3PGS43byyv4yuIjPv7ic4Z3O4hX9UwuX4xH4+XP2E8mMm5gQ6PHIahtsvlj3ggm9OpPRy8HMiP3szusDe+seouO9gauHf2Orfv28eOZ3OfQ17YvZGbFgQwIGEVXFzUal968MuQwS344T/DRSwQ/UIIGpw4z+PLLMTS2vMnJbz/n86/P5o4jCP+O2dPv8OLoSfRQ9rP2szUcThdAGoc+HMc7ydNYMLx57moq+tK2hYYPA4PJGtHLiAGMWiLCr2Cw7Uzz/L19ISr6tsNHs4Tg4CyG98pXgk13pi4cyeUFPxHywxyGrIrHotM8Nq+uyx+LF/Dlrx/Qp8s23CulEJ9Wm14zvmfJAI88H5WycnLCikwOnL6AoeE4Wued+LNIWUGBhFbw422/J3d+lsyIcOIMtnRq7mXcR/SKadOH75vujYeo2tyI8RBGxjgriKCLFfCd50f+pTS1WtOtVR0Sr1Uk60oYIJOIBzzu2a4evSyRHBcuwmIShDbPzH8GoU2IFWGhseJWhrEz6D3ZspLjRERorEjIW1Fh0CaI2NAwEXsrQzwdNc3HzDNWGrQJIirwd/H7qUiRWNoz2unvisQr4SIkNEZcT80Sxs1Peh+DVmRoDUIIvdAmxomw4NPifGyiyCrJigxJ4s+VU8X8reEi/kqkCAk6IY7s3yO2b1wnvvh0iZg/c7wY3Ka5+PfGhJJvXz4pu8aLFq1mit+0RiycHSwW+3uIxi99L24ZXXCK2D2umWg345AotIisZBEXHiZiE7R562PQisSYMBEWc0sU2SVknxYLO7qJ7ovOCOP3uLvi0PRWwvf1PSLV6L951LLFmfe7Ck+vl8RG4wNuVJua3DcZboj1AQ1E07HbRaohTfzx/TYRVeiUlcbF+O7BN0XbZm+In4paKOuYWPTu9iIWKL/K0Z2Iv1nhUNcLhwd+rsLayY2GRr5LXxZYOdTF88GKorJ2ws37Kapofha2VKrqQAU787xrorJ2or6f06MZFa+2wbGeF46m/r3KGtt7F27WjnVp6Fi3ZH+vJHBo/igWp45nyxteVFNBrXoPLqb9ZQaTLqcjeLj9qEr3YTy3dDp7jqbj36ugt44MZGcasLK2REm5SFh8BXxe7kyxL6j8UwLdhvfh42m7+T29Kz0LKsLKgbpeBR4oOLo3LLYtDH+dIuhaFZq39Db+k/dpR9h1tCJ9V3Z74h6XGrIzMVhZY6mkEBoaT4UWL9HJ+IAb0aYP0TflXObSXwK3gCbYph/h10gbphV2FjMqxmkc3XmUiv1X0LWIhlCSLqOr3LjwBcqxsvJGnyQZT+3GuB92MMW7HObID0l3/r98tDEK1TPVKTQHUxI5Hazg16new0+2ZdOO16c0J3DdFi7n/9SnIY4fJ/jj13wAy87qyPjzJKG2nXmhT80SdVw27d5gcvNANmy5VPDXRB9SdlgYl+1a0TH/16gKZSBm49ec8Z3C662fpMeIBuK2TKB7cx8GfnQOXcafnLxoS6d/9aFmyQJeeJs+LKtG9OzflOzgLaxZfoYGL/pTcJpiXIwNMRv5b7Avkya0poiluLI/lhrPNnnozX8aySRCejqZbW6P8kVloUZlYeDKhqmMW7yJIyFXSUrPJlubwo1LoRzfvoZ3x0zjgPdkRjcyR5KmoubAtxhbYRPLdt/MO5+DLpTjv19DX9Udd6eb/LQ9BM8xk+hdgqvi3CJqMeCtsVTY9DF7bpp/RkKbnovZf+gT+hs5HkK5toNlW+14bUb/J2yGZXSLHikAAAJ3SURBVB1hx45xTV8Vdw9Hbu7ZQYjXGCY+51jCE0URbfrQ7Gk7cys7P3mFIdPmMayQuSuMirESz86lW7EbN4N+RTSE4eoO1l/zY1Dh09uWaxZCmDLtkSRJT6dMorcu4K0PdxCSlO9DcRoHGvi/wL8nv8HzjSqb9QpESfiFOeN30nzpKoa6/91ZpxO4dgE/JNakauoF4qqN5N1Z3YufH6LgEkj4ZTYTdvjwweoA3B7X+UAXy8YJMwgZ9AWLehnzRsqjlX56Le9vTqSGQyohVx0ZMf8tuhU7P0TBCm7TR8CoGOuI/X4Cs84PYs0HvYp46+kupzZswtDnVdpVe9Ja68kgkwhJkh6UnUDon0FE/JWA1vIZXOo3wLOBK8+U4ox+2Zf2sGz1JfzfmUjbyvd12AYtGbqK2Bk5IVURJXB5z0esie3KR1PaPeS6TKCkcnzpTPZ4zOS9wR7mmaisVBjQZuioaGf90ElOoW1aWoyKsULqH0uZtcuDN98fnGcuEKnkZBIhSdKTQ5tKqroKVUqxY9empmJTpQTvYppNJreTcnBwtH/i7kCUqkfQpv8wLsaZSUnoqzpSqVw1ROmQSYQkSZIkSSaReZgkSZIkSSaRSYQkSZIkSSaRSYQkSZIkSSaRSYQkSZIkSSaRSYQkSZIkSSaRSYQkSZIkSSaRSYQkSZIkSSaRSYQkSZIkSSaRSYQkSZIkSSaRSYQkSZIkSSaRSYQkSZIkSSaRSYQkSZIkSSaRSYQkSZIkSSaRSYQkSZIkSSaRSYQkSZIkSSaRSYQkSZIkSSaRSYQkSZIkSSaRSYQkSZIkSSaRSYQkSZIkSSaRSYQkSZIkSSb5H6PcIfbi+KxWAAAAAElFTkSuQmCC;" vertex="1" parent="1">
          <mxGeometry x="569.0000590183424" y="475.0045189368208" width="529" height="73" as="geometry" />
        </mxCell>
        <mxCell id="0ZkBP9dp2YlqK50nAH8K-74" style="edgeStyle=orthogonalEdgeStyle;rounded=0;orthogonalLoop=1;jettySize=auto;html=1;exitX=0.5;exitY=1;exitDx=0;exitDy=0;exitPerimeter=0;entryX=0.5;entryY=0;entryDx=0;entryDy=0;entryPerimeter=0;" edge="1" parent="1" source="0ZkBP9dp2YlqK50nAH8K-71" target="0ZkBP9dp2YlqK50nAH8K-73">
          <mxGeometry relative="1" as="geometry" />
        </mxCell>
        <mxCell id="0ZkBP9dp2YlqK50nAH8K-71" value="update the value&lt;br&gt;of &lt;b&gt;fbst &lt;/b&gt;and &lt;b&gt;xbst&lt;/b&gt;" style="shape=mxgraph.flowchart.data;strokeWidth=2;gradientColor=none;gradientDirection=north;fontStyle=0;html=1;" vertex="1" parent="1">
          <mxGeometry x="238" y="603" width="159" height="80" as="geometry" />
        </mxCell>
        <mxCell id="0ZkBP9dp2YlqK50nAH8K-76" style="edgeStyle=orthogonalEdgeStyle;rounded=0;orthogonalLoop=1;jettySize=auto;html=1;exitX=0.5;exitY=1;exitDx=0;exitDy=0;exitPerimeter=0;entryX=0.066;entryY=0.477;entryDx=0;entryDy=0;entryPerimeter=0;" edge="1" parent="1" source="0ZkBP9dp2YlqK50nAH8K-73" target="6">
          <mxGeometry relative="1" as="geometry">
            <mxPoint x="150" y="247" as="targetPoint" />
            <Array as="points">
              <mxPoint x="318" y="795" />
              <mxPoint x="180" y="795" />
              <mxPoint x="180" y="238" />
            </Array>
          </mxGeometry>
        </mxCell>
        <mxCell id="0ZkBP9dp2YlqK50nAH8K-73" value="update diameter &lt;b&gt;d&lt;/b&gt;&lt;br&gt;and size&lt;b&gt; delta&lt;br&gt;&lt;/b&gt;" style="shape=mxgraph.flowchart.data;strokeWidth=2;gradientColor=none;gradientDirection=north;fontStyle=0;html=1;" vertex="1" parent="1">
          <mxGeometry x="238" y="695" width="159" height="80" as="geometry" />
        </mxCell>
        <mxCell id="0ZkBP9dp2YlqK50nAH8K-75" value="end&lt;br&gt;" style="shape=mxgraph.flowchart.terminator;strokeWidth=2;gradientColor=none;gradientDirection=north;fontStyle=0;html=1;" vertex="1" parent="1">
          <mxGeometry x="439" y="688" width="120" height="30" as="geometry" />
        </mxCell>
        <mxCell id="0ZkBP9dp2YlqK50nAH8K-77" value="" style="shape=image;verticalLabelPosition=bottom;labelBackgroundColor=default;verticalAlign=top;aspect=fixed;imageAspect=0;image=data:image/png,iVBORw0KGgoAAAANSUhEUgAAAjAAAABCCAYAAABJhOyMAAAgAElEQVR4nO3dZ1gU19+A4YfdlQ4KgkGKAhaKsfcSu7G3GGs0vkkssbfEaIyJXWOaXaN/EzXRWGLvxti72FA6Iqggvbuwy+7M+wErgtJECee+Lj8AM3PmnDnu/PZUA1mWZQRBEARBEIoRxZu+AUEQBEEQhLwSAYwgCIIgCMWOCGAEQRAEQSh2RABTyPShmxnbYxK7oqU3fSuCIAiC8J9VQgOYh/hu/5NjkYUdZOgJ3b+ZI6ESpuZZilaK4cyOI4RpCjlJQRAEQSiBCi+ASYvhduBdErUvO0giLeY2fgH3iFPrCy1ppGSCjvzOLwsW8edhb6Jfeg+pXFs2mh9uV6GeXSHHb1ICVy75o6zZkLrGWf6msKWmw3VmfL6Caw8LN9k3QUoO5J/ffmLhog0c8Y7mpUUuCIIgCIWsUN7g+rt/M7bde3Ro34rWvb7nfHKWA3ThHP95ON0b16ZepwksXTaVPk1a0H/aDoIK2iIhxXBiVn+Gb4a2A5uQsm44A+edIy37g4nYM40Z19oyY1JDLAuY9GP6+/+yesE85s2ZycYrWoyTLvHr/HmsOBzGs2GaRcNxTGl6julT9xBRjHuYpJjjzOk3lK20Y0CTFDYM68+Cc9mX+BulvcGvgzvQrlVr2j769/6gFdzSvekbEwRBEAqqEAIYPWH7NvJPuBaQSbm1iS2nn32ZafBeNpJxS//BNzKDBuPXsnR6d6rID/Da9DUTll4v0Ld39dlFfLcxgSaf9MFw+2yWXIgiKvxBtteUwv9m5sJ4Ppzej4rKAiSahdKuPj0Gfkz/OsbEqR1o//lYBg0eTO+mjjyfjBFun8ynX+LPzNkRQfGMYdScWzSdvxKaMrivITtnLeZiVBThEW+6DSaZy6tnssH7mfswrMnwVcvoZRtBWGgoYaGh3A1PRFs8C14QBEF4RiEEMErKVqxAaYNHPxo64uxU6umf1afZuPFWZouIojTlHSzRep3mUrIMaIkICyf/nUlpnN99hAeG71K3hgnl3+vDgI8n8MOULpR+4dgkji9aSki7MXzoXIjRC4DKknKO5ZFCA4mxqEeL5s44OTpga55NOkoneo9pQ9CiRRxPKtzbKBJp59hz+AGG1etR3cSeZn0/YuCEn5jc9cUSLzoSkftm8OWPB/GPy7Iuo4kTLvYmGGR/oiAIglBMqQrjIqU7Tmf5rHfYdl1Nhbaf8kmNp5fV3fUhIPHxS8UApRJMmn3CxL7J7LlThk6ftcQkvwnrgrlxKxGFczU8zRRY1hnE9DrZH6q/vYmVe63pua9u/tN7GSkBr8sBqGr1f3H8SxZGdfrR07oHv24ZScthzhRyOJUNLZFeh7gsN6ZrfdsCXUkXfAOfRAXOnp6YKSypPeg7ahfSXeaXxv83vvxmN+G67PNmIKIXQRCE/5xCCWBQ2FB34NfUHfjin/SJCSRnbbK3rM3ABevI5vA8kRJvcfOOHvMOblR4aU50BOzajY9HD35yeU3hQvoVLt3QUXVIfaxe1a6ldKX9+5VZumMHAZ9OxLNwnkI2HnLn342sXrGW/WH29JpZh64Fup5E0k1vQvXmtHevWEiVp2A0QZv5YugPXEiSEc0sgiAIJUcB30E6Qg6tYY+PmicN9wpr6vT5mBYOMv67l7P/1HWeNMDID7m1cym/XFLi0Ooz+tQp2DDaDJ8bBGaocHGviuFLbzOQw0eCqdi6CQ6vjF+0JIQFEBIDtpWrUqGM0dPLJN3FLygWQ/uqVLE3f67/Tet/Be9UJ1o2dEIJ6MN2sdGvCQM7lMumn05JxaaNcPzlCIcDx+JZ2BGMPo5be9exatUfnEmtTs9hizjUtzH2Rq8+9eUy8LkRQIbKBbeqLy3xIqH2Xc+Ez+ZyLPLxqFw1vnuW8MtVJSbVejCkg2sOFVxHxOl1rN50gsAEFTaVG9Fj2Ce0rvBiAWmjvDiw6xheN30ITTangkctWvcZSNtKme14UvRZNm68QOyTIN0AY4+uDG1vybXNv7H5qDcPtKWpUPt9Ph7WA0/LErpygSAIQiEr4JtTga2rK4rNM1l+MjJzUKrShU+bf0QLB1DHPSAiJgXdkwBGx8PYcMIphXGKHol8DMLR32f3t1PZeluLNjqAaFlPxvYpDDqhwMCyGeOXjaZ+lveQFHsZrxAzPCa4vTTDKb6bmT91CafTK1DZKhn/6yHonFsxdMZ3tAiZz/hlt7B2syfZNwC5xVSWz+tJxUcXzAgLJcLQjRqehqC/x+7VXliM7JZj/lRu1XE3/p0rl2PB0y6vpZA9TTgXt65h5a/b8TZtykcjNjCzWw3KFrDRSX9/FzOnbOZ2RgbR/tHI+gx2fjWAk0oFFs0msGR0AwocG+X9rogNicbSzQXzqCBSZR7VrwjCDZRY2KfncN5D/NaNZOLis8Rr00jTARdPcfjQFWbvWkUfx8eFJRF7+idGjf2VqxpPPl2+nJ8r+LN6/FhGbd7PwIXL+bq9A8rSFalqu4vNc7YTqAEwoHSX0pTet475x+ORtGloJbh87ggHToXxx7YJ1Cz6whIEQfjvkQuBet8Yubazi1zZ2UWuXKm1PM9L8+Rv6ae+lpu5Pvqba2P5m1PpBU5Pn/5QTkmKlneNqCFXrtJPXnsnSU5OSpFT03XZHp9+ZIJc17mLvCQw+7/Lsl6OPT5L7lq/ozxtd7Cc+uh3D9YNkD2dXeQqnjXk2vUGyxuC0mX1rbXysKYecmWXWvL4/alPrqC7v0v+qmMvecrK3+QlM2fJv3slyvqXZSLDV/6lvYtcd8I/+SuEZ+8+JUg+snyi/EE9D7lRjy/kVUduy6mvPCtPKcjpD1Pk5Oid8ujqLrJH3//JoUlJcnJKqpxDkRcZzYWZcutKj+qXS0N56rGs9StdPjy+llzlSf2sIXf5Yqvsm6STNXfWyYOru2b+3rmS3PLb8/Ljs3X3tsmf18v827sfb5Sj9bIsy3r53po+sruzi1yl9jD57wePnrDmmrywbeVH13GR3Wu0k0etPC9Hpevl2COT5ZaP679zDXn4tpiX1wtBEAQhVwql70KhUqEwAORXHlooFEammCvDCA1Vo7D3oLq9JRY59mhIJNyPIElRlnfeyb4pQoo5zPxv9uM4eTszuzk8HVQry8iArFZTtt8o+laGU5NWcDw8HQwsMDZ+WnxKh+4sONCBuMgUzO1sXt0ioSqPna0BSRHhecr7s3Qx19nz2wpWbzyPtnZvhiw7Sq+G9q+hNUSBkak5ytA7hKkVlPesTnlLy5d3272lFHbdmDKnNx5GgFkLmlRRcvaqDpCICgogSWpEOYWWGxtWcTxWBpTYVa5CaQWAgrLv2GIMpCac5O+99+gxtCJKhRKl8ukAHMOGw5n7eaPMmXDNW1DLbBv3UwDUhATeRYdNsSw7QRCEt8nbMA4zf9T++IfpMWzsycuHY0jExsaDmQelc3izqy8e4oJVX1Y8G7ygwedWMDoAxTs0aV0DQ1R4tPuApgFnkRuMYkSLrBc0oqxdbsMHIywsjCAoOpfHP5V27wxbVq1g7U5fSrf6mFF/fU+nalavfTaT2t+fML0hjTzdXnwBpwVyaO16dp24QWKD6ayf3PANdCu9moGhCSaPYw0DU0yMnhn5q9eRAaDz58Spu4+m9xtgZmGOrNOhAyQTU4wNIFXW4n/1BulUxCxLGkojk2fKxwQTEwNIkR8lIVbREwRBKAzFNoDRBvkSnK6koqfHCy+Q50lo0jRQypBSORxh3mUxZ7pkTSCAK9cTkAEDy7o0ejRwwaHD1/zeocC3DygwMjIETV5WsNURtO4zBs48g8n7XzDrwP9o5WxaGDeTC1qCfYNJVzrj4ZFNiZtUpcPAGmxbshvrj9zfyuAl1zJCCbn3ONDQ4b9mIK3/elp7FLblKAcoMxKJ1/OK+icIgiC8DsU0gJFI9g8gQjKlrbvLKzOhUKlAr89TD5c+8jJX72Z+Bzeq0Yh6ryFOkCQZlHl5BCoc3+vHgI4xrD+2gTVWhqhGDuC9Cq9lZZvnSUn4B4QjmbbDzSX7e9bcuI6fQQ0+b2yRvzS0d7l0w4C69Z2KYG2cl8hII/1JQ4kBFu3nc+zn93MOykSjiiAIQpErpnM6MwjwDSZDVQlP91d911dibmYKaWmk5WEJ+ZTLXgRkAKhwa9gA66ybS0sFXY9eIj1dA6Z5+/5uUqkj41Yc4MyhubSWDzPl/SZ0H7OIA36Jr3drgowA/IIzUFWqRvZFrsXn9CUSqjamsW0+qpUmhB2ThrDa3/DNL+diVIbST/qZZB4+iCBebD8gCILwVimeAYw+Gv/AWLCqivsrF3ZRUt7RDlVGAnEp2b+FtMF/M6VnS9r2ms6+e3pAw/VL3qgBFHZUr/P8nkaay/Po1GACB9UFyIMUT2yCFpWdQ75ON3VuzZDvt3L85BoGvOPNz32a8/4nc9niFfVadobWR/sRFAtWVd2xz67I9aGcu3gPx0ZNKB9xgv/NGM/oMTP4/Xz0060ipERubPmJeT+tYu2KZSyeu56LGonIs78yoXsPvtoXx0Pfv9h6Ie415CAPVJ5Uc3vaZaTzOce5uKx1R0KnK8Qd1QVBEIQ8KaQA5vnOGfnZHyX5ueP0hfGZr/XD77YOVSUP3HMa2PIMQxdnHIjgbmh2bf1pnFyxgB3X7xJ2/SjnbutAc4UT52IyWzRUrrhXeabJQRfCtmW70LfvSZOCdCvpwrkfAfYuLgW4CBi+U4++3/zGkdNbmFgzik1DW9G6zxR+OxlGQeKrrLR+foToVLh6emQ7lkiKOc+FwDLULB/Mqt+9sWr4HhVi9jJv+FR2RGW+/NXH5zPqlxiajv6cT3o7EXIlFAwUlPbsQs9Gtqhcu/L5qH60q14m9zf2XHNNOmlpeiCZi6sWczDyUdDxXPWUn/nxxU5FGUDpQPuuDTF//LuUU6xdepKYJzGMhtt/f8GAibvJTOIVnZNFNDtPEAShJCmEAEYiJTae9Mcf0lIKSQlPA4X0+HgePv7gl5IIvxdX4K4OXZgfQckKHKq9++pl+wFD97pUN48kKDApm7RlZFkGAzNcOo/jk8YZeK9ZzEF1GSwMAAMdWk3mWfq4G2ycMJQVyX2Z81XLbDaMzD0pKYCgKAtq1PMowFWeUpTxoNP4Jew+d4gFHRT8O6UjzTuNYfFePxIL3P2h465vEMkKRzzftcq20qScO8tNyZyYKGP6TBtLr469GPdJcyxSAvAJyQAkUsPvExd7i+u3NShs29F/aDMqqcCkNNz2u491vZY0crSjrFnuR8Aoyzti93hIjpzCiZ/H8fXEocz1dqBmOQVIycQlpPO0esYTn/H4hzjiE59GF1J8LHGZ085w6P0VIxpYPIqPtAT9OYZ+A8YxY+4MJg7syuCVpfh0Wg/sFEBGPHFJTwtZEx/7dPsMdRxx6iep8zA5SQyZEQRBKAQFDGC03Fw5iO6zTqN5/Cs5lj2Te/PD2RQuLepLt+lHSXlyfDrnF/Sj39CpbPLJ/8d4mr8fYXozPGq55249DeO6NK6jwufyFV5cn9WUNpNm81ENM5JubmF6r46MOlyJadsOsfa7HtS09ub7Dq3o0bMLbTqO5kDZsWzYNImGBdsFgXSvy/iUqkfTeq/Y+TGvTCrQ7NN5bDx9kjWfOuC7qB+t2nzCvE2Xicp335Iaf79Q9GYe1HLPrsTT8Dp3FbVRRTp/0pUKSgCJpKho0pT2ODmqAAU2HfrSzsqXNdPWcEtjSqOObbBRAMkXuehjTO2mdfI8e0np1IcJIxpQVgUgk3r7NKciGzNt7gfY67xZPagbc049qZ3IsXv4que3/BPjz/qhn7Ha72k91Af/zoiPlmT+YOTJkF/XMqWLO5YqQFZz9+JeNq7dxjVFe+ZsnEeHdxTo721nUuex/B35NIDRnl9A3xF/EhR9kGkfzuLEwyepE7dnKv2/O8wLPVKCIAhC3rzplfTyTiNfndNadnP/WN4Ulfs1TRN2j5DrNJgsH1PndES6HB/mJ/sGR8vq5y6rl9XRt2Vfn9tyVGphLTv7UP53UgO57si9cmIhXTFH+iQ58OAyeVL3JnL3hdfzdw3NFXleq8ryux9vlLMtcs1FedZ7rnKTL/+VU56ke19e189drjFgvXzvSbHp5Yi/h8sNnN3lD5b4yI/Xa1b/84XcoOpH8h+R+V2jVi8n3b0unzt2XL7g80B+mM+r5ESXEi77njss7z9wTL4UGCNnFPL1BUEQhLwrNoN49Zq0zMGpUgI+PuGUqtOa5ja5v/0ybQfQqdQJ9p5MzuEII6wquONRyRaT5y6rwMTWFQ9PV8rloWvjpZJOsPukMV0GtilQN1SuKCyp0mEUP+46y64va+bhRD2atMwmGynhFr7hpajdugXZFbnu9lkuPXCkQ6+mT8aNJJ9axrqbbnw2uS+OyiSuXfJDi4LyPaYxppkK77/+wksDoMX3vBfJbo1olIfnmSWTWDrVpHGrljT0tKOwZ7wrze3xaPw+nTq2on4Vm+K69oAgCMJ/SjEIYPSEbR1N21q16fnDdbSpFzh/y4zmvTtTPi93b9qEkeNrcXndVu680ckjeoI3reVq3fGMbFgE67fkhz6MbaNbUa9Wd366piX1wnl8zFrQq3P5bCqMRNS5CwQbelK7emYHkO7+HmYt9KfFj8sYVdMItCH8+7+d3NAASntavOdGKVUpShlkpnX+Ujj29eshnznA1RjRtyIIgiC8WjH4MqnF9/Rp7uus6VjZhsi9i7jpPpTVnWzyGH0pKN/zK4btHspPe7qwpKfdG4nepPs7+elvc4av7ka5tzV81Ppw9tR9dNadqGQbyb5FN3EbuoaO2baQyGgt3qGCeRS+x/5Bir7KmRs6mi/ZRLfKjwI0/QMibuxj8UI3hjZUc/iEkn7ThlPXENCEEnpPRwI7udr9W/rmZw0ZQRAEocQxkGX5rZ/kmXxpJXM2x2BnlcjNuzYMnPEVbV65/kv2pOhDTBuxi1oLl9G3UhHHb9rbbBr9JTc/+JW5HWzf4uavZC6vnMWWmPJYJ3oTVnYQ301pm/36L49JacTcuUuqpRMVbU2fz5sulqiEMtiYJXD3/kMsnSpQ9kk/nYQ6MpR4kwo4li4G8bQgCILwVigWAUwmPepULcbmJgV+8WtC9vLT8hBafTuGxqWLKIyQEjm7cDJ7K09m5oeVi8deQXo1qVpjzE3e3lBLEARBKJmKUQBTyNSJJCrLUKbIIok04mIzsLKxfItbXgRBEASheCi5AYwgCIIgCMWWaAwQBEEQBKHYKfIApoqLK1VcXIs6WaFY0RO2eTS9Ju0kWsyq/m/Sh7J1dE++3Bn9endRFwThP0u0wAj59tB3Bxv/jSz8C+tDOfDXYcL0pphnqaFSzGl2HQl9unWFUCzpQ/ez+VAokqm5+BASBCFfSvxnh5QcyD+//cTCRRs44h1NvrcLKvYkkgOPsO6nBSzZcJib0S8vidSryxi74DaV69sV/p0kXOayv5IajeqSdacohW1N7K99y6gV13iY7dnC208i8fJlApQ1aVi3kPcCEwShxCjRAYwUc5w5/YaylXYMaJLChmH9WXAu7U3f1hsgEXt8FgOHbIF2A2mcsp4R/edxPoeikML3MH36ddrMnljgTS2f0hP+768snDuX+TM3clVrTNKlVXw/bxlHwp5dOtmSBuO/psnZaXyzJ1x0PxQn+nCOrVrA/DlzmfXnFbTGSVxauYAFyw4T9kZXxxYEoTgqwSuHqTm3aDp/JTRnTV9DdvZdzMUoQ8witMBbusT/66I+y+Lpm0hovpbehjsYsOgCUYZmPMiuKKRwts/4gfg+f9C3YiHtDQWAknfq92SAWyrei/ax3qEjw8YOpprKmDLls6Rj5M7gBf0ZMnA2u+qt4AP7Eh2HFx/Kd6j3wUCqpt5g6b51OHQczpj/exeVcRnsCrMqCYJQIpTcACbtHHsOP8CwTj2qm9hj1vcj4hMaMbDra99e8a2Tdm43RyIMqV23Bib2ZvQeGE9io0F0zqYoko4tZvnttixc4kxhv3NUluVwNEthT2AMFvVa8J6zU44bMyqd+jCqzTom/XKMNj+0ff2bYgqFQIVlOUfMUnYRGGNB3ZbNqehU2FtvCoJQUpTYAEYXfAOfRAXOnp6YKSypPeg7ar/pm3ojdNy+7kOSwhnPamYoLOsw8Ls62R+qD+Gv5Xux+mAvdV9TI5WUcJnLASpq9H9x/MvzjKjdvyfW3VexbVQrhjiLr/DFg0TipcsEqmrST4x/EQShAEpo27tE0k1vQvXmVHKvWHKjOAApkVs376A3r4xbxZeXhC5gJ3tuudOhi0uht748ln7lIjd1btRvYP3Kyql07Ui7yt7s3BGA7jXdj1DY0rly0RudW33qWZfQjx9BEApFCf0EycDnRgAZKhfcqhq+6Zt5szJ88PbPQOXizsuLQkfgwX+4XbExTRxzEb5oEwi76cWVm3dJfG7Os46ku95cuerPg9SsQ3C1BFzxJtWpHg2clICesF3rOZzTYjDKijRp7ETw4YMEvqYIRpsQxi0vL27dTXx+6rYuibveXlzzj+CFbJQU+XnGWn+ueqfiWK8hmY84jN3rDon1fgRByLMS1figv7+LmVM2czsjg2j/aGR9Bju/GsBJpQKLZhNYMrpB8dhkscD03N/1HdM2B5OhjSEgWkafsZ2pA46jNLCk6cRljGyQpSSkWLwuh2DqOZ6qL601yfj+NY9vlpwmvWIlrJL8uRGio2Kr4Xw7owV35o1luY81buWT8QuA5lNXMPsD50cVMYOw0HAM3WriYQj6e7v432ULRnTLKc5WUfVdd4x/u8KVWAlPu0KMx5N92TL3a5adTqdCZSuS/K5zR+dMy+EzmN4yhO/HLMOnrBvlk30JkFswZeVcejiXlP9OBXjGGWGEhhviVssTQ/Tc27maKxYj6VpCv0oJgpB/Rb4X0uNVeIPuhBRlso9IaNRqtA+P8nWbifzrOY2Dq3tjrVBiaGKG0RsYRiE9jCQkLAEt+XkMBpQq40Ql+3wsBiZpUKs1qI9O5f0JR/H45jAre1ujUBphYmb0YheR5ihfNBxG0CeH2TGuSvZdSFIcJ+d8zNQLNZm6dBpdK5mBFMkfA1sy63wGphbmmNSeyJ+r+6DZOJZRP/xLhFFXFp9dTEczAD0Ru6fy+QYDunR2IPq+BZ3GDabOS3YM1/n+TPfOf+Cx+gI/tiuc8FOKO8H8QV9xodY0Fk3rRmY21jO4xUwuZJhiYW5KrUmbWNlHw6Yxn/PzvxEYdV2K15JOhZJ+Pu6Yh5Eh3I3Pdy2iTIVKlM+6amC2SRXwGevD2TNlGH8adKOTQxThFp0Z/X91KapN4QVB+O8oKV8ZH1FgZGqOMvQOYWoF5T2rU97SkjfXiaTj+tLBDPo1KN8L6Bm6DmH9ga+pl9d3t8IIU3MlYXdCUSvs8ahuj6VlziUhJdznQZKCsnbv5DD+RSL28Fy+3e/EFztm09Xh6VGZMbKMWm1D39H9qcxJvlx+jPB0MLAwxvhJLVRi330hezrEEpligZ3NqzOlsi+PrUESD8KTgHK5z39OpBiOzP2GA06T2Ta7G/bPZDYzG2rUNv0Y2b8ynJjEqmPhpGOAhfEbHJCqu8byjz9iTVC+axGuQ/7g8LT6rziuEJ6x0oFuP+ynfWwkqRZ2lC0ZTZ6CILwGJSyAyaT29ydMb0gjT7cnwYuUFMjJ/Qc4euwcpT5Yz4xORbEWjIo6Uw7jM6UIksqWmgC/MPSGjfFwe3kYJ8XEEo8Z7qVzeuOouXTwPFb9VtHlmRcbmlv4BGcOUFHYNaFlDUNQedL2g6YEnoX6o0bRPOsljWywy+2LzcgCCyMIjo6iUAIY9SUOn7Omz69dnwteNLducVsHoOCdJq2obggqz3b0aBbIebk+I0a3ACSSAk9w8MA/HD9bih4bZtGxSKpRXSYf8Wfya0+o8J6xkY1dCemuFQThdSmBAYyWYN9g0pXOeHiYPfmtQmmGlRzEyX+vU61DAXrV9Hr0SuVrm6VTqLRB+Aano3T2wN3s5YdKmjQ0lMKwVE5HmNNpyXmydqJo/b24kSADBljWaUwNIwAH2k/bQPuC3j+AwggjQ9CkpxfG1cC8M79c6Jzll1oCvK6TmQ1L6jSumfnydezA1A0dnjtSaWaNFHiCY9ffpX2BqpEepfJtq0Vv6BkLgiBko+T1PEtJ+AeEI5lWws3lmfjN3IF361ahbEFKREri7MIf2Jdc4LssElKSP4HhEqaV3XF5VSirVKJEjz5Ps0X0RHpd5a4ewIjqjernuDBd/klIMiiUrzEW10dy5cpdMrNRg4YNcs6FucO71K1atkD/saSkM/z4w16KRzUqimcsCILwopLXApMRgF9wBqpK1XDP2oZtYFCAC2sI2foVk9dpGTcq92clBx7n36tRaPM3+hLDcrVp09qN/GxJlBHgy+0MFZU83V/ZnK80N8eUNNLS8xLBpHDlsj8ZACo3GjTMuraLhCQpUBTobZ9OugbMzF7RhFQQKV54+WcAoHJvQP2s65dIEpJC8SRvBalFaEL4e/IXbNBOYESuT0om6PhRrkVpyc+QfAMDQ2xrt6WVW35qURE8Y0EQhGyUuABGH+1HUCxYNXd/bozDs6T40ywbs4adp/xJKVub7pPm8EXnipkved1dDv28kguGrlQ2j+HKyRSazZ9Dp6TNLFpzjugMS/bOnYavS3vGDGv+ihYdHffPbOOPv8PIyO/8EadUqjZ3o1qen6SeaL8gYrHiPQ+HV3Z5Kcs7YqfKIDE2BQmTbFoYtAT//Q1TlnqheG8CP83sipPuGpe91QAo7GpS+7n1YzR4ze3CqKgJHF/SKd/f2qX4WBK0Kt5xLKRdsbXBbJ/2JSu8lDSb+AvfdnVCd+0SN9UACuxq1OH5bFxmfueRRE88yS+dns2FRPzppYxbvYMz/slY1+7BxLmT6VjRCNBx9+AvrDpfikqVzYnxOkVy8/nM/tAa/4R049AAAAjLSURBVL9+5n/noskovYcF03xxfn8MQ1rYvLxFR3efs1s3sCMsv7OQDHFMdaOVW7VXFc4becaCIAjZKXEBjNbPjxCdiqqeHmQ/nEOH77GLvDfkG5YNCmLL7FmsGz8MQ/s9fFnbiNQjPzLbtwn71vXDCg21Ur/jrBpMqg1kbM8dHFlclq7T5tInV19mVXh+uoIdnxZqFnNJi7/vbXQqNzw8chzY8pShMxUd4Z+7oego9+LMrbQTrJq/nRvxMoqj5wiZ3pVyV05wPiazxUbl6k7lZ5p5dCFbWL5Lov0PTQv0YtPdv0cEDrR3eXYWkERy4DF2HvTDuGFvejWyy3VFTzuxgoXbbxAvK/j37G2+7lqOq8fPkZkNFS7uVZ5prdJxZ8sydkvt+b5pllzofDh+sTmfTl/BwKC/mDvzdyYONcRu71fUzjjCzzN8aXzod/pagab2Q2aeeQg4UG3QeHrsOMzSst2YMrdv7lrWVJ7838pd/F8u85hvRfaMNYRf2MuJ6Mq071QLmxL3KSUIQm6UsIZdHXd9g0hWOOL5rlUOmVfh1n0cH7ethUeD3nzz41CqEcTm344CEmkJCSRe3c668zHoMcKj9yCaWRWo0+DN0IXhF5SMwrEa1axyUQ0M3alb3ZzIwECSs+tFkmWQwcDMhU7jP6VRxg3WLt6PuowFBoCBToNWAtATd+NPvhiynNR+8/iiZUG2YZRIDgwi2qIGdT2eCam011kxYgRzFv3CN4P/j5+9NDlfIttsGGDm2pmxnzUm48Yalu5XU8bCADBAp9WQmY04vP+cyLBlKfSdN5kWWbOhcqfbuMG0qeVB/d7fsnDouxD0F+v+SUVKSyAh8So7fjtPrB6MPD/ko+ZWBet6KgpF9Ix1fqsY9fFkZowbxJebIxCL9AqCkJ0SFsCo8fcLRW/mQS33nKcNlyr1tEVCVakFzZwVpIYEAQrKdhrKoIqBrBjUgQ8nr+e6oTvVbIthMar98Q/VY+ZZi1fMoH7EmLpN66C65cWV7Cb8mLZlwuxBVDdL4uaWafTpMJIjlaaz+fA6pvesiZX3Ajq37Ebvzi3pOmof1uM2smFSw3yN3XkqHa9LtyhVrxn1nm2AUZbBsaJVZgubNoTTp27n+oqmbScxc1ANzBJvsvXrD+ky4giu327lwPpv6V7LmpvzO9K26wd0b9GJsfusGbNpIxMaZZeLUjytRipcWzbDWZFKaPB9FGU7MWRwRYKWfUynnl/xxzVD3KvZvv3/GYvoGRuYlKG0sQGozLEqU8K3+hAEIUclq3FWG4xvUDrGtZtQL7frcyhsKFtWgULKHCSqsGrOlC1bqTr7S+Zvm8nHFy8x/dcf6feSgOhtpA32JSjdmJqN65O7olBg074nLebN48SFNNq3znqWEofOM9jedhx370SiK+uMs23mWBmXn3cySEoj9k4oMZSlgnM5zApjhrD6PMcvKmg5/f3nxxopXRn42xm6hEdwZfVI/rDOQwuA0oGOM3fSevxdQh/osHZxxtZEAbjy487BSGkxhN6JBZsKVCxnluvp8gobG6wVCiQzc1BY8d7Xm9lcdTaT5/7NrI8ucum7VSwc4J7LZ/GmFM0zVjoPZs2xxgSl2uHhbPn2B3aCILwRJeCzQY8mLXOFUinhFr7hpajdugU2uc25FEdcvALXBo0Aidjzp7mlcuOD+Ts5+Ock6qkP8/3if545IbOZ/a2k15BZFBIJt3yIKFWH1q8aIPqsMm3p30XFyd0nc57ia2RFBXcPXG2zDPRVmGBTyQOPSoUUvABJx3dx0rgbA9pmF6AYYml2n/N3avJRD4c8X9vIqgJunq6PgpenFCa2uHp64JqH4AVAiosjXlGJ+o3skGLOc+amiqofzmf7kT+ZWF/NkQVLOJr6zAmy/NZWo6J4xoY2VakmghdBEF7iv/35oA9j2+hW1KvVnZ+uaUm9cB4fsxb06lz+pRmXpKdbG6d57+ektjOjB1cDZB767GTnpYeAEptGQxnVxQkjIyPAAAszMwykWCIjdUix9wl/+Jrzlwf6sK2MbVmbet1+5Lo2lYvnbmHW4kM62eelCpjSeNQEal5ex98h+td2r7miD+avtVepO2EUDbJpttBHHGXBuPWUGTOVdmWK/vZAQv+kGqVxc/9xtF3GMKiaClntw64dl3gIKG0b8tmYzjgaGWFkABhYYGZmgBQbRZROIu5+OG9RNRIEQXhr/Le7kLQ+nD11H511JyrZRrJv0U3chq6hYw7NLyqnFvTscJQ/1o3l6zt1cTCMIzS8NBP+nE9rWwWgBymKw/O/osynPXCXbnEovCnffNMWUGDT/H3qm81izWf9CPlwDFPHOhZpdl9G63OGM/d1WHeuhE3kXpbcdOez/3XK88J9CvsefDl8N5//sIdOy3tSmBtA555E+M4f2GExnFXdymUbjKYlGNJm3nIaOhR1154Kx5a9aH90AxvGTCG0riOG8XeIKD2JDfPbYKsAPTJRBxcwtcyndPfQ43MgnKbffkMbMwAbmr3fALNZvzK07216jZ3G6LenGgmCILw1/uO7USdzeeUstsSUxzrRm7Cyg/huStsc1395Qkoj7n40ehsnyplmWZZLp0NWGaCNi+BBqgnlnWx4tpdBmxROdIYNjrnYiLBIJV9i1azNxNpZk3gzjLIDZzC53avXf8mWFM3hKSPZXXshS/q7FnkUrL29kbFfeNNz9Xzav8UDqKW0WO5HS9g4leO5aiTp0MkqDLRxRESkYmrvRNnnuqq0JIVHo7NxFJsdCoIg5OA/HsA8oleTqjXG3OTtfdkVFb06Fa2xOQUuCk0I+xYuJ6TNt4xtUpCp0HkjJZ7hx8l7qDR5Nr0qi7e7IAhCSfXGApj8KNKgR8gFNYmJSsqUKcJAIi2WuAxrylqKYFQQBKEk+2+PgRFeM1PKFPUAWRMbyr7dc40FQRCEIlDkLTCCIAiCIAgFJdrhBUEQBEEodkQAIwiCIAhCsSMCGEEQBEEQih0RwAiCIAiCUOz8P33zkljhJHFjAAAAAElFTkSuQmCC;" vertex="1" parent="1">
          <mxGeometry x="597.9983198879078" y="570.0028664232337" width="560" height="66" as="geometry" />
        </mxCell>
        <mxCell id="0ZkBP9dp2YlqK50nAH8K-78" value="" style="shape=image;verticalLabelPosition=bottom;labelBackgroundColor=default;verticalAlign=top;aspect=fixed;imageAspect=0;image=data:image/png,iVBORw0KGgoAAAANSUhEUgAAAd4AAAB7CAYAAADaOOEqAAAgAElEQVR4nO3deVxU9f7H8dfMGQYQUFAQVJBFFtEUSUBNrVx+aZr7cl1KzWxfzfJWer1aXS2t1MyyW5prmlouuaTZ4jVNUcQd1EQIQTYFdYSY5czvD9AAR0GlAePzfDx8+Hgw+p0v8/3MeZ/z/Z5FY7VarQghhBDCLrRV3QEhhBCiJpHgFUIIIexIglcIIYSwIwleIYQQwo4keIUQQgg7kuAVQggh7EiCVwghhLAjCV4hhBDCjiR4hRBCCDuS4BVCCCHsSIJXCCGEsCMJXiGEEMKOJHiFEEIIO5LgFUIIIexIglcIIYSwIwleIYQQwo4keIUQQgg7kuAVQggh7EiCVwghhLAjCV4hhBDCjiR4hRBCCDuS4BVCCCHsSIJXCCGEsCMJXiGEEMKOJHiFEEIIO5LgFUIIIexIglcIIYSwIwleIYQQwo4keIUQQgg7kuAVQtyBjKT/PJ8FP2aiVnVXhLhJErziFllIWfEcA8atIUu2fKIsSzIrn+vHq2uyKjEYVXJ3L2LqhNf459jRPPLEf1i+Kw1zpbUvhH1I8IpbY0lm0/ItpFhq4SpVJMqwJG9kxXfJqLVcK3Ejo6VW8H0Mfvp13nrnMWJqV1rDQtiVbDLFLVFz97I3UaFl29Y4VXVnRDWjkrd3L8eVCNq0rtzqcPQMINi3DvpKbVUI+9JVdQfEncRC2g+fs2x3DqaM3ew3OtEkdh7vJrnTevjTPOCvVHUHRVWypPHjZ0vYk2MiY3ccRqdgYj95hySP1gx9uhtSHkIUkeAVN2QpvMC5rGxyss+Ra/Xmruh+DAszcGjWBhY1epAnXhhJc50T7g1kq1rzWCi8cI6s7Bxycs5j9WlBVP+HCTUcZM6GhTR68EmeH3UXOid3fKQ8hLhKgldcn/EgC56dyKrDp0nJykdpO4lty0bh63KJ9SeycYu6j44BftSq6n7eafJT2bNpAzsSMilQPAlt350HOwZT+xYXfi4l/cr2XfEkJuXi4NuMqPu60K5JbRvrSCo5O7/km7P+dOrSjhCPK19/C5fPHGL71iO49hzOvd4V64jx4HxemPAVR06nkJWv0GbSjyx91BeXS2s5ke1G6/vvxd+vJldHPqm7N7Hxf4lkFmjxDG1Pt54dCb7Fgc5P3c3mDTs4npGP1jOMex7sQYdgW+NchppL/IplpNz9FH2byia/OpA1XnF9+gge//xbNswZhK9WISg6hvra4vXd4zpatpH13ZtlOLqE53uPYdnFSIa+MonxY+6BjeMYPOYT9ube5Pm/ag67Zz1Cz0fmcNSpFb0fG0U331Tmj+7F0/MPYbj2P5C5+0tmvjqSHjGtaHNPZ7p3uY92LZsR2XE4Hx6vRxPPim8S9BFP8OmGzcwa7ItWaUJUG29AJS92Lyd0EcTYWN9Vs1YwpkUwIYFBFfgTSscJP1N4c59K9WA4ytJn+vDEkotEDhvHv14bwz1s4tX+jzMvNvcmz/Q2cHTJs/R/bCkXI4cx9t+vMbo9bH55AE9+EoutsrEU5HE26Rh7vv0vk0f04ZEJc9maYKqkX07cLtn9EeWwcDb+MOlWLwZEN0EH5Mft4bA5jNExdWXP7WZc/B8znptOWp8VLB/dHEcA57v5x7Q5mEb35eV/+7F61kNU7ICzgCPznuWZuRl0/3Qdr3Z2LxqLRi8w2zGD3o8/y1T/9bzd1ePaMdIA5nzOn03mPFpq+bVjxIRxPD2oFfVudkAtZzlwKB2r10CimuiAfOL2HMIc9hhRda9tTFt/MHN/6cIlI1jLbVyLc516RZ+TXeRzbOMPGDv0olWd22nnIjveeZ730vqwbOVomhcNNJFDpzLbPJoBL03Gb81MelZwZuHi9nd58d00en/1FY8WNYbz3UN4+yMTY/qM5U3fb3i/l/ef42w5w9rJr7ImuwHNYtrRuJ4VidzqRbabohwX2bc3EbNrBDERjoCR43GHMPhFEeOnABZS1i5ii1zMWw4zxxbMYHV6S/oNCS8dJkpj+g7qQMHm6Xzya8WO7yxJXzLt470UBD7EkHvdS32R3doN4AG/DNbOXsyJshe5atzoOXsPO7Z+zeKlX7Fx5wHi/reEif+4hdAFuLiXfYlmXCLa0NIRMCay/5AB36g2FJVHCusWflfiWm8tjnW88PTywqvcP/Vwtefpy+bTbJr5HutPGG+vmWMLeG9VOi36/4Pw0gNN436DaZ+/mfc++rViR/LmYyycsYqzLfsxuHRjKI37MahDPt9Nn8vuko0pvgx4dzlLF3zAG0/1IdJbj+a2fiNR2SR4xY0V7Cf2YAEOzdoQ5QpgIiU5DX1YBOF6sKSu5fO9brS4iSnKGsl4mG83JGL2DiHU49rPyjk8DH/S+X7dLxSU25iF37dsIv4yaH39CSg7b6UPIdhfwZSwiQ1HbNxeQuuKT0gk7dpHE9rQ9bamvQr27+FggQPN2kRRVB4pJKfpCWvVDD0WUtf8lzi3FlR+eaioKqhqZe7wqVitVqzlH4rfgJHD6zZy3OxNSJiN2QbnpoQFQPrW9ewsf6AxHl7HpkQz3qFhXFs2zoQ1DYD0rXz7SwUaE9WGTDWLGzIm7iH+vJagodHU1wI4EdOzNwGLd7JsQTJZZ9zoN34kDSV3b0jNiuNAigVtmAfuNs7wVby8qKtVOXZwPyfNXWh5w2+mmdSUdCyAk6MTDte87oibmxMaSzIH4rNQWzX8i/awjSTu2U+utgnRMcVTnU4x9OgdwNJflrLwdCZpbv0ZN6pRpb2/cd/nTFiwh6yMJBLyHSn49nVG/BZIfb/7+fA/wyrpXW6DmkV8fAoWbRjutgcaz7pa1KMH2X/CTOeIGw20SlbcAVIsWkLd3bm2NQUvr7po1aMcjDuBuUuEbNDvEDJOopjKxWPrmPfxBpKd6lPHdAlNxEiGF8aRavViQHRwcbEoNOwznfXdc8i45IaPp/1W4O5kplNJpKqgcXXDzVYKOdTCWQ/mM0kkGykneP9cH9VobE8i6vV6wEDyiZOYaHjNOqkl7xRxsQc4kW7Gu3k0URFBeNxoWle9yLG1HzNvQzJO9etgNmhpOfJhCvelFq3vBhd3WGlE7xkb6ZaTgcHNh3qVXB76qDHMiBpTuY1WJlMSSb+roHHFzfZAU6tooDmdbIQbBq+J00m/o6LBtbabzZ0XB2dn9JhJS0rGiATvnULGSQBGTn/9Gk9OO0HH6QuY07k+CpeJn/kSr3x9FLNrp+L13RIcPfGp0sxVuZyRxO/njRU4SedaGhxwb9yEBna636Wad54LKqBVbBy5AGhRNIApl3O5KtS6Ub90BAT6opCJyViI5ZrXC8nNvYQVlYt5F8qcQWvh7M8f8VZcLSLuu4fotionN0xi4MT6PDnzTQY3c7327YxJrPnn47xz4l7e+WIuneorcDme2S+OZc1RMy6ditd3S3D09LHjSVHViJrL+aKBRnedrau2aKDJO5eLSq0bzAao5J4rGj+tcp3GFAUNYMo7R155ZSOqDQneGk8l96c3eeKNbXiOW83rnesXB4MLEYPbUffjH3BoHVO8vluNmOOZO2I4n5281RNh9ASNWcKWCdGV2q3rMRWaigJQq7W9odUqKFoNWI0U/lHeroSCb9cHiJgVx4HMdNLNEFrym2w8zvGkorVdS76BfMC5+CUHByfU+h15aVxb3Is7EhY6EyW1N2OHPcMfqxcwIrhEY2ouP095nInbPBn79YSi0AVwiWDQPXWZ94MDd8cUr+8KMBViKhpoNLYHGkXRosGKsbCwnJ1GE4VFjaHV2k5UraKg1YC1sJByy0ZUGxK8Nd3FHbz/rxWkeAxkwvDQUgVhzs7mvKoQWHz9brWia834rYmMr+p+VNSVM3as1utsbK2o1qK/K0JpMpSxI9Yw+outbDz2JKFXDzlVMrduJcWlHlqyQO9Y4shTR+jzS1letjGtF537d8Jrw1fMnf0dPWc/dPUM50s7ZjB5RTIeAycytFS6m8nOPo+qBBHVxlvO0rzqyvharzuUVrX4X1RgqP8sm+s29uf7iTuGBG+NZuH3rz9lfZoV72EP0c6l9GtnY/eSbPWkf1SwFMpt0jnq0QIW1WJjahhQVSxWK2j06B0rcvGHKzHjv+BT5/FMfn0iDSe/wAOBRo7/tJI1J1vRo8Umfj6iwc29jo2Tr2z0LzCQhlor+7dvZqfhIXrXBiy/8828daRZfRjS6x5Kl8dZ9sYmY/Uc8Of6brVn5viSV3lrbSqFtoLMWsCZ5DOoE4dwxNXGGGg06Bv1YuIHIwm/3q+sc0RfNNCYbT6vUEVVrVjRoHcs7zIfHY5FjaHabgzVYkG1gkbviF6uGbpj3CnfGPFXUDP4act+CvDggXsjy6zJ5bF3TwJm147ERNbI1bpKpXh4UEcL58xmTDYPTkyYTIDiTl0blxvZbtSb9i8tYNVDsezas5752wqp16ovE14LYtdLb2BFR5Pw8KvBq15MZl9cFt7RMfiXmRvWODvjpAEKkjl9xgzNdKhnf2Tr/gLw6EbHsjWQF0tsghmXjm0ou/xffelo3GkEj3vnYPPMADWNdZM/orDf4wxuYmslXoNDvab432irqXjgUTTQmM22j0JNRhOgUMfDxuVGpRvDo24dtJzDbDbbPqY1mzADSp26Ni43EtWVBG9NZjpO4ikj6MOJjHQu/Vr+fvaUun63urnIyZ+2EZ9pvKXrLjUaPV6RXekUZp+HuuqCgvBT4NxlAwZb2/xLFzBYQGkcgH9FDlGvUnAPbkeP4Hb0uPIjSxLJqQVYdcFERV+ZBjawddJAXliXi9eg/7JtehdKjbjlypG4lisnSptOJJBkBH343bQqWx5xu4uv342+o9Z3nX0juc/3Oi+aD3Nghgv5rbvwfzG3eOcOXRBBjRU4d5nLtgeai0UDTUBgeQOtIzCoMQrnyL9ssBG8KpcuGLCg0DgwoEIzG6J6kOCtydTLXMoHbYMQQt1L7y4bj+4mPlchMDoKby0Y4+ezMHcIT3R2uU5jdmY+w86Vi/km5VbPatbjawijU1jzSu+aLYp3ayL8FOJyMsm0QLMy3zxzWjpZqgb3iNaEVnCbb0iOJf5cI6JaNyodonkHOHjKgj6iD32uvlEhebkGrDjj2aDuNWdWq3l5GKygcQsipFHR/1EvXyIfLT6hoZQuDyPHdseTpwQVB7uRA/O/IHfIk3SqJuVRZRRv7m7lh7Ivh8wMWwOdTnqmisajJXeXO9AK3q0j8FP2kZORgYVmZTbYZtLTM1E1HrRoHSrPKL6DSPDWZEpDGnpr0biUvanDZeI3/UyqtR4DokLRYebQz8cwP1iN5hR1zRj1yVpGVXU/Kkrfkr69wlk8N5GEVAudgkt+4CoXEhJJszagT+8OpdZS1XMH+PqLjZwN68/oXuF/Hl0W7uDdYY+yIsufR5dv5o1o/dW2zmxcy68F/gx8fihBV9+mDpFRHejT722m9vUps5FWyT14iBSzlobd+tGheBJAadiI+loNLmVv3nA5ns3bf8dabyCtQ3VgPsj2Yya6V6PyqDp6WvTrRdOFc0k8loqlc3Cpz069kEBimhWffr1pX3qgObB6IZvSw+g/5iGaFg+0vmU/eoYv4pPEY6RaOlO6bC6QmJCGtUFfenW4zT0eNZv4lYtYnxLEoOf606ym70D9xWRVoCbTRzBwYEv06b/x2+UrPyzk5Fdvs+iwFa1Sn4YNdFAYz3fJgXS5Y06iqY50hI58mUGNT7B2yW4ulnypMIGvVu2jdvdXeK5jycfomflt6SQmzZ3PnFemsjaz5BW5GjQaHbUDWtLU+8+tsTFlNVM/PkjgmKm83LHkNLqOkCH90a+dx87s0lf2qpk/MvuznRT6D+CNsffiVvxzfcRABrTUc/a338i/2teTrHz7C46oWpT6jSgqj82kBHaliZQHALqwEYwd7MfJNUvZU3qgSVi+krja3Rn3QsdSj9M0n1zG5Alz+WL2K0xbk1myMR4ZNxi/E2tYtrtUYxQmrGD1vtp0e/UFOlz36Yt/kHPOgBULuefOXfepSOYTXzL5Xx+zdN7rTJh//KZ/Z3FzlMmTJ0+u6k6IqqKl3l0R1Du5nM83ZaMxHGbjkuXEez3Mv15qyx87NrD/oiPnt27G3O9FegY4yc3Wb4PGOYA20R4cWfABa7J9CA/xQcnYw/IpE1mtPMKMacMJcyn5CWtx1ORwKPY0DlGDeLR/JF5XMlbXiCZ1UjlmaESTegrG3NPEfbeQaW+tRTf0A2a92JayDwfSuITQJjSDxVM+Ytd50BjPk/DTSj6cMpuDgU8xc+547i8R4mg9ad7Kk9+Wf8bmbA2GQ9+ybPl+PB/5Ny+2LeCXb/dxwSmX7zeZ6fPSQwQ43eHVoWaxa+kmTF1HcH8j27c5qRCNMwFto/E4vICZ32TjEx6Ct5JB7JdTmLRKx8MfTGVYmEup75LWSUPOwViSdVEMfKw/ra4OtAbngLa09jjCwve/JscnnBAfhcw9X/LmhFUoI97n7eFhlCobCtn53khenjqPj2fOZcNxM3pHB3J2f8nCZatZv34jRxzvoVN47at90Ooh+0AspzWe6Gr583C38Fv//UW5NNbrXiAmag4zl84c41iagl/zpjR0Lf7SF2Zz/OBpCGpFmKesIFWawnTiv9/KjqPpFDh4EtKuG93a+ONyC/NPhlPb2fRDPCk5JpwbNqP9g12J9C5nzvfyGeJ37iLuaCp/eARxV6sYols14rqzi+aLnDmWQLriS7OmjfizPBI5dBqCWjWl3t+hPMyHmdHtWfKnbePft3pyVSmFnI3fxtbtR0gvcMAzpB0PPNgG/1sZaKAwPZ4ftvyPo+n5OHiG0rZ7d2L8XSp32rLwF6ZOy+aNyf0qs1VRhgSvEEIAWJKYN2Qsf0z5mpfKnhRVQ6hpS3hz5V1MHhtZ1V35W6uZ1SWEEGUpQTz11Rq4zu0Z//4sJG85hc8DQ6u6I397NbXChBDiWjU2dMHy+xoWnYmi/3VvyyUqS82tMiGEEMUus+/nPLo926P63Zf9b0jWeIUQQgg7kn0bIYQQwo4keIUQQgg7kuAVQggh7EiCVwghhLAjCV4hhBDCjiR4hRBCCDuS4BVCCCHsSIJXCCGEsCMJXiGEEMKOJHiFEHcYI+k/z2fBj5nXfbC7ENWZBK+4RRZSVjzHgHFryJKtnyjlr6gNldzdi5g64TX+OXY0jzzxH5bvSsNcWc0LYUcSvOLWWJLZtHwLKZZauEoViZL+ktrQUiv4PgY//TpvvfMYMbUrq10h7E82meKWqLl72Zuo0LJta5yqujOiWvmrasPRM4Bg3zroK7FNIaqCPHhRXMOY8SsrF64j9nQeinsDfAPCaHVfV7o08yDth89ZtjsHU8Zu9hudaBI7j3eT3Gk9/Gke8FequuviLya1IcTtk+AVpV3ew7z3f8RvwCM81iae9Z/NY+HKRZi+Pk3ittfxju7HsDADh2ZtYFGjB3nihZE01znh3kA2rBWWn8qeTRvYkZBJgeJJaPvuPNgxmNq3OP90KelXtu+KJzEpFwffZkTd14V2TWrbmM5Sydn5Jd+c9adTl3aEeFz5+lu4fOYQ27cewbXncO71vk5HpDaEqBQSvKIU47EfSfR5iGfaNkdHcyI6DeKJ+J38VjsGAF3t+vi6XGL9iWzcou6jY4Aftaq4z3cSw9ElvP7iUjTDpvDPV2LwvHSAte+NY/Ci7rz1/pNEe9xE+qo57P5wLONXWeg59jn6PeaPevRrpo/uxeIRc3j/sZa4lv4PZO7+kpkfJTJDV4u6XvXxcLZwITuDc5cUgga/x/yR139/qQ0hKocEryhNp+H3H77j8HMRRDoCOOId2RnvEv9Ezd3L3uM6Wg6V9d2bcvF/zHhuOml9VrB8dHMcAZzv5h/T5mAa3ZeX/+3H6lkPcb0DztIKODLvWZ6Zm0H3T9fxamf3oiPcRi8w2zGD3o8/y1T/9bzd1ePaI18NYM7n/NlkzqOlll87RkwYx9ODWlHvRu99m7WhZq3giS4T2W6oyKnOOnyG/Zdt/7m/6HMS4m9EgleUog+Novm5cbzzeS8WP9vM5kbvj7g9HDaHMTqmrpydV2Fmji2Ywer0lrw2JLz056o0pu+gDswaO51P/vF/TG5fftRYkr5k2sd7KQh8miH3upcaB7d2A3jAbxVLZi9mxP0v0rTkt1zjRs/Ze3il6RlOZ5mpFxhOUEPXCm0Ibrc2tPUHM/eXLlwygrXcd9PiXKeehK74W5LtpijNpSODenlyaM4rzNx90cY/MHI87hAGvyhi/BTAQsraRWyRi3lvzHiYbzckYvYOIdTGdLJzeBj+pPP9ul8oKLcxC79v2UT8ZdD6+hNQNjX1IQT7K5gSNrHhiI0rXbWu+IRE0q59NKEVDF2gEmpDi2MdLzy9vPAq9089XOX0ZfE3JcErynAkctQo2jgcZ9E/p7Itu2ygmkhJTkMfFkG4Hiypa/l8rxstPKWUbkTNiuNAigVtbQ/cbZxrpHh5UVercv7gfk6We1cIM6kp6VgAnaMTDte87oibmxMaSzIH4rMq8e5O1aU2VFQVVFV29sSdSaaaRSmXk7ezevEerA09UE+sZsq7nYic3q3E2p8TMT17E7B4J8sWJJN1xo1+40fSUHL3hkynkkhVQePqhputz8qhFs56MJ9JItkILcv5Zl6ZqtVoNDZf1+v1gIHkEycx0fCaKVtL3iniYg9wIt2Md/NooiKC8CjnCLOqa8O473MmLNhDVkYSCfmOFHz7OiN+C6S+3/18+J9hlfMmQtiBBK8olk/ikpd5cZkTo96fyvxH1/BYjynsWv8JKx7vwrNhV0pFoWGf6azvnkPGJTd8PKtqFU7lckYSv583VmC98FoaHHBv3IQGdrrtlpp3ngsqoFWwfXGNFkUDmHI5l6tCrRue5URAoC8KmZiMhViueb2Q3NxLWFG5mHehzBGvhbM/f8RbcbWIuO8eotuqnNwwiYET6/PkzDcZ3Mz1mtaqS23oo8YwI2pMpbYpRFWQ4BXAZQ5/9jRPf67nueXvMSRIBwxgVI9P2b3yGD9uS+apsODSgeHoiU9VnvlijmfuiOF8dtJ4iw3oCRqzhC0Toiu1W9djKjQVBaBWa3t9R6ugaDVgNVL4R3m7Egq+XR8gYlYcBzLTSTdDaMlvsvE4x5OK5qst+QbyAefilxwcnFDrd+SlcW1xL+5IWOhMlNTejB32DH+sXsCI4JKN3YG1IUQ1J8EryN87h9feO0DAP9czKOhKSbjSpktb3FetIy05BTPB1zlSqyK61ozfmsj4qu5HRVmtV/+2HatWVGvR3xWhNBnK2BFrGP3FVjYee5LQlleSTiVz61ZSXOqhJQv0jiWmmXWEPr+U5WUb03rRuX8nvDZ8xdzZ39Fz9kNXp4/vyNoQopqTlbmaTk1n/dzl/Fa7Cw8PDCi1AdX7B9BA0aBTZLN6u3SO+qIvm2qxMTUMqCoWqxU0evSOttdtS3MlZvwXfPpMPTa9PpGv9qaSm3OK3ave5YNDrejRQgE0uLnXsXHylY3+BQbSUGvl/PbN7DRc6ZPUhhB/BQneGk7N/pHv9hio3e7/6FD2iS8WMxa01PPxkSOa26R4eFBHC1azGZPNg1oTJhOguFO3onevUrxp/9ICVs3uj9uJ9cz/bB0Jrn2Z8FpXHA0GrOhoEh5+NXjVi8nE/hRLiuHapjTOzjhpgIJkTp8pmqaW2hDiryFTzTWc6WQiSUaF4BYtrq4DXn3tzBmyrPXoEhFYDQvlIid/2kZ8pvHqLO7N0Gj0eEV2pVOYfZ4vpwsKwk+Bc5cNGGz0V710AYMFlMYB+FfkEPUqBffgdvQIbkePKz+yJJGcWoBVF0xUtHfx3rWBrZMG8sK6XLwG/Zdt07uUHm/LlSNxLVdOlL5za0OI6k2+MzWd0YwZZ+o38Cxz5GIkYd9BLnrdT7c21fBMGfMZdq5czDcpt3pWsx5fQxidwppXetdsUbxbE+GnEJeTSaYFmpX55pnT0slSNbhHtCa0gjeOMCTHEn+uEVGtG5UOxrwDHDxlQR/Rhz5X36iQvFwDVpzxbFD3mqNUNS8PgxU0bkGENCr+P3dqbQhRzUnw1nAOoWEEOWzEZDJByc13QRzfbs3irodH0b463ule14xRn6xlVFX3o6L0LenbK5zFcxNJSLXQKbhklKlcSEgkzdqAPr074FLylXMH+PqLjZwN68/oXuF/PvSgcAfvDnuUFVn+PLp8M29E66+2dWbjWn4t8Gfg80MJuvo2dYiM6kCffm8zta9PmWfaquQePESKWUvDbv2uTivfsbXBDT43IaoBWeOt4bS+A3hyYH3iN28h4+oFn4UkLpzF955PMml0mOydVQodoSNfZlDjE6xdsptSN1wsTOCrVfuo3f0VnutYMsnM/LZ0EpPmzmfOK1NZm1nyilwNGo2O2gEtaer9Z4gbU1Yz9eODBI6ZyssdS06j6wgZ0h/92nnsLHPHKTXzR2Z/tpNC/wG8MfZe3Ip/fufWxo0+NyGqnjJ58uTJVd0JUZUc8Y+KpnbsJ3y4JROrMYP938xhfmI0/5r5DK3rVOQMW1ERGucA2kR7cGTBB6zJ9iE8xAclYw/Lp0xktfIIM6YNJ8yl5OetxVGTw6HY0zhEDeLR/pF4XclYXSOa1EnlmKERTeopGHNPE/fdQqa9tRbd0A+Y9WJb6pbZrda4hNAmNIPFUz5i13nQGM+T8NNKPpwym4OBTzFz7nju9y55JH6n1sYNPjchqgGN1Xorp6aIvx+VguxTHEs8i+odTstQL3kyzF+lMJ3477ey42g6BQ6ehLTrRrc2/rjcwvyT4dR2Nv0QT0qOCeeGzWj/YFcivcsZuctniN+5i7ijqfzhEcRdrWKIbtWo1BR3aVIbQlQmCV4hhBDCjmSNVwghhLAjCV4hhBDCjiR4hRBCCDuS4BVCCCHsSIJXCCGEsCMJXiGEEMKOJHiFEEIIO5LgFUIIIfKNrVUAAACuSURBVOxIglcIIYSwIwleIYQQwo4keIUQQgg7kuAVQggh7EiCVwghhLAjCV4hhBDCjiR4hRBCCDuS4BVCCCHsSIJXCCGEsCMJXiGEEMKOJHiFEEIIO5LgFUIIIexIglcIIYSwIwleIYQQwo4keIUQQgg7kuAVQggh7EiCVwghhLAjCV4hhBDCjiR4hRBCCDuS4BVCCCHsSIJXCCGEsCMJXiGEEMKOJHiFEEIIO/p/sOnajP1XYH4AAAAASUVORK5CYII=;" vertex="1" parent="1">
          <mxGeometry x="600.9991894531253" y="644.002431640625" width="478" height="123" as="geometry" />
        </mxCell>
      </root>
    </mxGraphModel>
  </diagram>
</mxfile>
